<svg width="33" height="34" fill="none" xmlns="http://www.w3.org/2000/svg"><path d="M30.427 3.635C28.634 1.185 26.75.044 24.5.044c-1.457 0-2.872.474-4.237.931l-.046.015c-1.456.486-2.832.944-4.317.944-1.487 0-2.945-.496-4.364-.979C10.141.485 8.703 0 7.261 0 5 0 3.16 1.164 1.474 3.663-1.178 7.58.328 11.776 1.542 15.16c.541 1.505 1.052 2.927 1.052 4C2.594 24.672 3.74 34 8.036 34c2.94 0 3.844-3.464 4.644-6.53.85-3.226 1.585-5.51 3.324-5.51 1.5 0 2.073 1.479 2.869 5.023.688 3.098 1.545 6.952 5.158 6.952 5.042 0 5.433-11.314 5.433-14.782 0-1.018.494-2.427 1.017-3.92l.021-.06c1.204-3.453 2.701-7.75-.075-11.538zm-2.523 10.607l-.019.055c-.605 1.726-1.176 3.356-1.176 4.856 0 3.291-.341 6.481-.936 8.753-.696 2.653-1.493 3.234-1.742 3.234-1.106 0-1.637-1.026-2.473-4.785-.681-3.034-1.614-7.19-5.554-7.19-3.989 0-5.143 4.383-5.99 7.599-.461 1.768-1.159 4.441-1.978 4.441-.127 0-.928-.56-1.66-3.224-.652-2.37-1.026-5.585-1.026-8.821 0-1.567-.592-3.214-1.223-4.97-1.096-3.054-2.23-6.214-.38-8.947C5.202 3.085 6.34 2.795 7.262 2.795c.995 0 2.165.394 3.405.812 1.544.526 3.295 1.122 5.232 1.122 1.926 0 3.653-.576 5.177-1.083l.048-.016c1.214-.407 2.361-.792 3.375-.792.946 0 2.128.293 3.716 2.464 1.902 2.593.777 5.82-.31 8.94z" fill="#20B63B"/></svg>