<svg width="35" height="34" fill="none" xmlns="http://www.w3.org/2000/svg"><path d="M34.002 16.998a.996.996 0 00-.474-.846l-3.455-2.13 3.46-2.153a.996.996 0 00.002-1.69L17.53.152a.996.996 0 00-1.058 0L.47 10.179a.996.996 0 00.003 1.69l3.435 2.138L.47 16.155a.996.996 0 00.002 1.69l3.435 2.139L.47 22.132a.996.996 0 000 1.689l16.003 10.027a.996.996 0 001.058 0l16.004-10.027a.996.996 0 00-.006-1.692l-3.456-2.13 3.46-2.153a.996.996 0 00.469-.848zM2.879 11.02l14.123-8.85 14.123 8.85-14.123 8.79-14.123-8.79zm28.24 11.962l-14.117 8.845-14.126-8.85 2.914-1.822 10.686 6.65a.995.995 0 001.052 0l10.656-6.632 2.935 1.81zm-14.117 2.805L2.88 16.998l2.91-1.819 10.686 6.651a.995.995 0 001.052 0l10.656-6.632 2.93 1.806-14.112 8.784z" fill="#20B63B"/></svg>