<svg width="39" height="34" fill="none" xmlns="http://www.w3.org/2000/svg"><path d="M34.662 13.6c-.142 0-.28.01-.418.028l-3.929-7.875a3.42 3.42 0 00.933-2.353c0-1.875-1.498-3.4-3.34-3.4-1.451 0-2.689.948-3.148 2.267H13.244C12.784.947 11.547 0 10.096 0c-1.842 0-3.34 1.525-3.34 3.4 0 .913.356 1.742.933 2.353l-3.93 7.875a3.28 3.28 0 00-.417-.028C1.5 13.6.002 15.125.002 17s1.498 3.4 3.34 3.4c.141 0 .28-.01.418-.028l3.929 7.875a3.419 3.419 0 00-.933 2.353c0 1.875 1.498 3.4 3.34 3.4 1.451 0 2.688-.948 3.148-2.267H24.76c.46 1.32 1.697 2.267 3.148 2.267 1.842 0 3.34-1.525 3.34-3.4a3.42 3.42 0 00-.933-2.353l3.929-7.875c.137.018.276.028.418.028 1.842 0 3.34-1.525 3.34-3.4s-1.498-3.4-3.34-3.4zm-2.408 1.044l-5.471-1.897a3.418 3.418 0 00-1.14-2.846l2.24-3.102.025.001c.142 0 .281-.01.418-.028l3.928 7.872zm-9.798 1.067c.316.101.651.156.999.156.944 0 1.798-.402 2.406-1.046l5.402 1.874-11.704 2.963-.005-.008 2.902-3.939zm-.114-3.244c0-.625.5-1.134 1.113-1.134.614 0 1.113.509 1.113 1.134 0 .625-.5 1.133-1.113 1.133a1.125 1.125 0 01-1.113-1.133zm5.566-10.2c.614 0 1.113.508 1.113 1.133s-.499 1.133-1.113 1.133A1.125 1.125 0 0126.795 3.4c0-.625.5-1.133 1.113-1.133zM24.76 4.533c.195.56.53 1.052.961 1.433l-2.24 3.101h-.026c-.75 0-1.443.253-2.001.68l-7.681-5.214H24.76zm-4.543 7.099a3.451 3.451 0 00.459 2.718l-2.902 3.939a3.273 3.273 0 00-.999-.156l-.062.002L12.35 6.292l7.868 5.34zm-2.328 9.901c0 .625-.5 1.134-1.114 1.134a1.125 1.125 0 01-1.113-1.134c0-.625.5-1.133 1.113-1.133.614 0 1.114.508 1.114 1.133zM10.096 2.267c.614 0 1.113.508 1.113 1.133s-.5 1.133-1.113 1.133A1.125 1.125 0 018.982 3.4c0-.625.5-1.133 1.114-1.133zm-.418 4.505c.137.018.276.028.418.028l.063-.002 4.47 12.134c-.18.154-.344.327-.488.515l-7.46-2.511a3.418 3.418 0 00-.932-2.29l3.929-7.874zM3.342 18.133A1.125 1.125 0 012.229 17c0-.625.499-1.133 1.113-1.133s1.113.508 1.113 1.133-.5 1.133-1.113 1.133zm6.754 13.6A1.125 1.125 0 018.982 30.6c0-.625.5-1.133 1.114-1.133.614 0 1.113.508 1.113 1.133s-.5 1.133-1.113 1.133zm.998-4.378a3.277 3.277 0 00-1.416-.127l-3.93-7.875c.081-.085.157-.174.228-.267l7.461 2.512c.013.671.216 1.296.56 1.819l-2.902 3.938zm2.15 2.112a3.412 3.412 0 00-.37-.75l2.903-3.94a3.276 3.276 0 002.76-.358l6.198 5.048H13.244zm14.664 2.266a1.125 1.125 0 01-1.113-1.133c0-.625.5-1.133 1.113-1.133.614 0 1.113.508 1.113 1.133s-.499 1.133-1.113 1.133zm.418-4.505a3.275 3.275 0 00-2.18.486L19.93 22.65c.087-.252.145-.518.17-.793l11.78-2.982c.11.171.237.331.376.478l-3.929 7.875zm6.336-9.095A1.125 1.125 0 0133.549 17c0-.625.5-1.133 1.113-1.133.614 0 1.113.508 1.113 1.133s-.5 1.133-1.113 1.133z" fill="#20B63B"/></svg>