<svg width="113" height="225" fill="none" xmlns="http://www.w3.org/2000/svg"><path d="M-112 112.481c0 1.38.081 2.841.081 4.22L-3.64 224.882c1.38.081 2.76.081 4.14.081 3.49 0 6.98-.162 10.47-.487l-122.483-122.301a106.837 106.837 0 00-.487 10.306zm5.275-34.085L34.671 219.688c3.734-1.217 7.305-2.516 10.877-4.139L-102.666 67.521a143.643 143.643 0 00-4.059 10.875zm14.288-29.297L63.974 205.324c2.923-2.029 5.763-4.139 8.523-6.412L-86.025 40.578c-2.273 2.759-4.383 5.6-6.412 8.521zm20.696-22.805L86.862 184.63c2.273-2.759 4.464-5.6 6.494-8.521L-63.218 19.802a98.077 98.077 0 00-8.523 6.492zm26.788-16.718l148.457 148.19a115.808 115.808 0 004.14-10.875L-34.158 5.437a114.235 114.235 0 00-10.795 4.139zM.5 0c-3.733 0-7.467.162-11.12.568l123.052 122.789c.325-3.571.568-7.223.568-10.875 0-1.218-.081-2.435-.081-3.652L3.909.081C2.774 0 1.638 0 .502 0zm38.715 6.817l66.802 66.629C94.653 42.606 70.14 18.098 39.215 6.817z" fill="#ECF6F8"/></svg>