<svg width="219" height="82" fill="none" xmlns="http://www.w3.org/2000/svg"><path d="M219 67.185L198.179 82l-19.535-13.902L159.15 82l-19.536-13.902L120.079 82l-19.494-13.902L81.05 82 61.515 68.098 42.02 82 22.485 68.098 2.95 82l-19.535-13.902L-36.08 82l-19.535-13.902L-75.15 82l-19.494-13.902L-114.179 82-135 67.185l2.613-3.693 18.208 12.989 19.535-13.902 19.494 13.902 19.536-13.902 19.535 13.902 19.494-13.902L2.95 76.481l19.535-13.902 19.536 13.902 19.494-13.902L81.05 76.481l19.535-13.902 19.494 13.902 19.535-13.902 19.536 13.902 19.494-13.902 19.535 13.902 18.208-12.989L219 67.185zm0-20.873l-20.821 14.815-19.535-13.902-19.494 13.901-19.536-13.901-19.535 13.901-19.494-13.901L81.05 61.126 61.515 47.225 42.02 61.126 22.485 47.225 2.95 61.126l-19.535-13.901-19.494 13.901-19.535-13.901-19.536 13.901-19.494-13.901-19.535 13.901L-135 46.312l2.613-3.652 18.208 12.947 19.535-13.901 19.494 13.901 19.536-13.901 19.535 13.901 19.494-13.901L2.95 55.607l19.535-13.901 19.536 13.901 19.494-13.901L81.05 55.607l19.535-13.901 19.494 13.901 19.535-13.901 19.536 13.901 19.494-13.901 19.535 13.901 18.208-12.947L219 46.312zm0-20.874l-20.821 14.856-19.535-13.901-19.494 13.901-19.536-13.901-19.535 13.901-19.494-13.901L81.05 40.294 61.515 26.393 42.02 40.294 22.485 26.393 2.95 40.294l-19.535-13.901-19.494 13.901-19.535-13.901-19.536 13.901-19.494-13.901-19.535 13.901L-135 25.438l2.613-3.651 18.208 12.988 19.535-13.901 19.494 13.901 19.536-13.901 19.535 13.901 19.494-13.901L2.95 34.775l19.535-13.901 19.536 13.901 19.494-13.901L81.05 34.775l19.535-13.901 19.494 13.901 19.535-13.901 19.536 13.901 19.494-13.901 19.535 13.901 18.208-12.988L219 25.438zm0-20.832l-20.821 14.815-19.535-13.902-19.494 13.902-19.536-13.902-19.535 13.902-19.494-13.902L81.05 19.421 61.515 5.519 42.02 19.421 22.485 5.519 2.95 19.421-16.585 5.519-36.08 19.421-55.614 5.519-75.15 19.421-94.644 5.519l-19.535 13.902L-135 4.606l2.613-3.652 18.208 12.948L-94.644 0l19.494 13.902L-55.614 0l19.535 13.902L-16.585 0 2.95 13.902 22.485 0l19.536 13.902L61.515 0 81.05 13.902 100.585 0l19.494 13.902L139.614 0l19.536 13.902L178.644 0l19.535 13.902L216.387.954 219 4.606z" fill="#FCF1EF"/></svg>