<svg width="178" height="55" fill="none" xmlns="http://www.w3.org/2000/svg"><path d="M118.464 31.918c.814-.941 2.087-1.407 3.818-1.407h3.96c.904 0 1.673.12 2.319.346.645.235 1.223.697 1.731 1.39.507.692.876 1.606 1.103 2.733h.388v-4.895c-1.046 0-1.665-.2-1.856-.59-.187-.391-.285-1.42-.285-3.085V17.8c0-1.025.134-1.673.405-1.944.263-.275.877-.426 1.838-.457v-.426h-12.803v.426c.815.031 1.357.089 1.62.182.258.089.49.315.676.675.192.359.285.923.285 1.682 0 1.273-.147 2.911-.445 4.904-.293 1.984-.832 3.666-1.602 5.033-.774 1.367-1.766 2.099-2.999 2.21v4.89h.392c.16-1.1.64-2.116 1.455-3.057zm3.257-6.564c.534-1.824.895-5.006 1.086-9.533h4.646v11.827c0 .986-.103 1.567-.307 1.744-.201.178-.81.271-1.834.271h-5.745c.904-1.043 1.62-2.485 2.154-4.31zm31.951 4.731h-.561a2.05 2.05 0 01-1.037-.28c-.249-.137-.404-.302-.489-.492-.093-.249-.147-.768-.147-1.554v-4.73h7.209v4.73c0 .932-.093 1.523-.285 1.762-.289.377-.752.564-1.384.564h-.547v.426h6.635v-.422h-.552c-.365 0-.712-.093-1.05-.28-.24-.137-.396-.301-.472-.492-.102-.248-.147-.768-.147-1.553v-10.03c0-.764.045-1.265.129-1.518a.97.97 0 01.499-.555 2.153 2.153 0 011.037-.262h.552v-.426h-6.635v.426h.547c.365 0 .712.089 1.046.27.24.138.4.303.476.493.098.253.147.777.147 1.571v4.447h-7.209v-4.447c0-.763.049-1.264.142-1.517a.978.978 0 01.494-.555 2.142 2.142 0 011.037-.262h.561v-.426h-6.649v.426h.548c.369 0 .721.089 1.059.27.231.138.387.303.467.493.098.253.151.777.151 1.571V27.76c0 .932-.098 1.523-.28 1.762-.294.377-.757.564-1.397.564h-.548v.426h6.649v-.426h.004zm-7.592-3.471h-.458c-.499.954-.979 1.669-1.455 2.144-.365.36-.748.595-1.144.719-.392.124-1.033.182-1.909.182h-2.63c-.427 0-.721-.045-.872-.129a.739.739 0 01-.321-.36c-.058-.146-.089-.568-.089-1.256v-5.117h3.409c.65 0 1.13.08 1.442.231.311.151.534.369.672.63.107.218.218.701.32 1.456h.423v-5.41h-.423c-.044.887-.267 1.504-.663 1.86-.294.266-.885.399-1.775.399h-3.409V15.82h4.259c.769 0 1.308.063 1.615.178.383.155.667.39.863.701.2.306.369.861.534 1.682h.445l-.173-3.4h-11.958v.427h.552c.641 0 1.095.15 1.371.457.2.23.294.839.294 1.824v10.092c0 .755-.045 1.256-.13 1.5a.979.979 0 01-.498.546 2.157 2.157 0 01-1.037.267h-.552v.417h11.958l1.339-3.897zm19.113-9.671c.28-.412.619-.692 1.019-.838.303-.107.819-.16 1.544-.16h1.869V27.82c0 .87-.084 1.425-.253 1.67-.272.399-.735.598-1.393.598h-.548v.422h6.582v-.422h-.543c-.601 0-1.046-.16-1.339-.483-.201-.236-.307-.83-.307-1.785V15.945h2.189c.641 0 1.152.106 1.553.315.392.213.703.537.939.976.151.28.263.737.343 1.38h.436l-.174-3.643h-12.665l-.186 3.644h.436c.049-.706.218-1.26.498-1.674zm-98.728-1.087c.267-.275.89-.426 1.856-.457v-.426H52.118v.426c.97.031 1.59.182 1.856.457.272.275.405.923.405 1.944v9.875c0 1.025-.138 1.673-.405 1.948-.267.275-.885.43-1.856.462v.426h6.738v-.422c-.98-.03-1.598-.182-1.865-.461-.267-.275-.396-.923-.396-1.949V15.821h7.254v11.858c0 1.03-.134 1.687-.405 1.953-.267.27-.881.426-1.843.457v.422h6.724v-.422c-.97-.03-1.593-.182-1.855-.461-.267-.275-.405-.923-.405-1.949V17.8c-.005-1.02.133-1.669.4-1.944zm41.443 14.247c-.627-.014-1.063-.076-1.317-.182-.249-.111-.405-.258-.472-.444-.066-.19-.106-.564-.111-1.119l6.065-7.717v7.451c0 .852-.111 1.394-.338 1.625-.227.23-.752.364-1.58.39v.355h5.661v-.355c-.81-.026-1.326-.155-1.558-.386-.222-.226-.338-.768-.338-1.629v-8.255c0-.856.116-1.402.338-1.628.227-.231.748-.356 1.558-.382v-.355h-5.661v.355c.766 0 1.282.102 1.54.31.254.205.378.697.378 1.478l-6.065 7.7v-7.482c0-.857.111-1.403.338-1.629.223-.23.743-.355 1.562-.382v-.355h-5.642v.355c.814.023 1.326.151 1.548.382.227.23.343.777.343 1.629v8.255c0 .86-.116 1.398-.343 1.629-.222.235-.738.36-1.548.386v.355h5.642v-.355zM91.327 27.2h-.382c-.419.795-.828 1.394-1.224 1.793-.312.302-.632.502-.966.6-.334.106-.872.155-1.61.155h-2.217c-.36 0-.605-.036-.734-.111a.585.585 0 01-.267-.293c-.049-.125-.076-.48-.076-1.052v-4.287h2.875c.547 0 .948.066 1.215.195.262.124.454.302.565.528.089.178.183.581.267 1.216h.36v-4.522h-.36c-.04.745-.222 1.26-.556 1.553-.25.222-.748.337-1.491.337h-2.875v-5.135h3.591c.646 0 1.1.05 1.358.142.325.134.56.329.725.586.165.253.312.724.45 1.407h.378l-.147-2.845H80.13v.355h.463c.538 0 .925.125 1.152.382.165.195.25.701.25 1.527v8.441c0 .63-.036 1.047-.107 1.256a.802.802 0 01-.423.457 1.82 1.82 0 01-.872.222h-.463v.355h10.075l1.121-3.262zm5.403 3.555c1.237 0 2.274-.342 3.11-1.016.837-.68 1.255-1.55 1.255-2.623a3.39 3.39 0 00-.823-2.268c-.543-.644-1.264-1.039-2.145-1.203.819-.262 1.473-.675 1.963-1.23.498-.559.747-1.229.747-2.014 0-.866-.329-1.616-.983-2.264-.654-.648-1.527-.967-2.604-.967-.796 0-1.561.133-2.282.395-.468.168-.766.257-.908.257-.374 0-.61-.213-.717-.635h-.338v3.777h.334c.165-.878.503-1.593 1.023-2.134.517-.537 1.238-.808 2.15-.808.743 0 1.33.226 1.753.67.432.448.645 1.025.645 1.726 0 .608-.151 1.141-.462 1.598a2.623 2.623 0 01-1.202.999c-.494.2-1.233.302-2.207.302v.634c1.38 0 2.372.293 2.968.87.6.581.899 1.296.899 2.14 0 .816-.236 1.504-.712 2.072-.467.563-1.135.848-1.99.848a3.746 3.746 0 01-2.01-.577c-.624-.386-1.104-.84-1.425-1.372l-.334.213c1.02 1.74 2.448 2.61 4.295 2.61zm-22.059-.652h-.503c-.494 0-.863-.142-1.103-.422-.183-.195-.276-.706-.276-1.522v-3.786c.418.093.81.155 1.175.2.365.044.707.07 1.019.07 1.29 0 2.278-.337 2.986-.998.698-.665 1.054-1.526 1.054-2.587 0-.781-.231-1.451-.698-2.02a3.753 3.753 0 00-1.71-1.211c-.671-.24-1.592-.36-2.758-.36h-4.793v.355h.49c.494 0 .867.142 1.117.422.173.2.262.706.262 1.518v8.397c0 .737-.067 1.211-.196 1.411-.24.355-.631.537-1.183.537h-.49v.355h5.603v-.36h.004zM72.79 18.422c.516-.12.934-.183 1.26-.183.542 0 1.023.12 1.445.36.423.24.752.6.988 1.083.227.48.347 1.003.347 1.567 0 .816-.244 1.478-.73 1.992-.489.52-1.063.773-1.73.773-.192 0-.41-.018-.672-.045-.272-.03-.57-.08-.908-.146v-5.401zm104.672 18.134H51.852v1.07h125.61v-1.07zM63.448 41.15c-1.29 0-2.425.905-2.425 2.449 0 1.545 1.108 2.45 2.412 2.45 1.437 0 2.434-1.008 2.434-2.45 0-1.544-1.122-2.45-2.421-2.45zm0 4.153c-.899 0-1.624-.603-1.624-1.704 0-1.096.734-1.713 1.633-1.713.89 0 1.624.63 1.624 1.713 0 1.1-.743 1.704-1.633 1.704zm5.758-1.637l-1.936-2.45h-.293v4.749h.796V43l1.38 1.753h.111L70.634 43v2.965h.797v-4.75h-.293l-1.932 2.45zm63.814-3.444c-.325-.005-.552-.142-.592-.44l-.552.054c.049.616.476 1.02 1.148 1.02.708 0 1.068-.417 1.121-1.02-.151-.023-.36-.04-.511-.054-.049.324-.303.44-.614.44zm-78.783 5.072c-.975 0-1.62-.754-1.62-1.695 0-1.012.645-1.717 1.62-1.717.627.009 1.157.28 1.392.865h.762c-.254-1.07-1.215-1.584-2.15-1.584-1.3 0-2.42.9-2.42 2.432 0 1.526 1.12 2.41 2.411 2.41.966 0 1.945-.506 2.18-1.665h-.77c-.204.635-.756.954-1.405.954zm2.741-3.368h1.38v4.038h.774v-4.038h1.38v-.697h-3.534v.697zm93.699 1.74l-1.936-2.45h-.293v4.749h.796V43l1.38 1.753h.106L152.105 43v2.965h.797v-4.75h-.294l-1.931 2.45zm-9.567-1.35c.142-.488.311-.577.787-.541v-.541c-.979-.182-1.348.244-1.517.852-.129.492-.267.976-.543 1.123-.209.106-.57.115-.93.115v-2.1h-.797v4.736h.797v-1.997c.231 0 .685 0 .89-.075l1.362 2.072h.899v-.115l-1.562-2.268c.316-.284.471-.746.614-1.26zm3.809-1.166c-1.291 0-2.426.905-2.426 2.449 0 1.545 1.108 2.45 2.412 2.45 1.433 0 2.434-1.008 2.434-2.45 0-1.544-1.121-2.45-2.42-2.45zm0 4.153c-.899 0-1.625-.603-1.625-1.704 0-1.096.735-1.713 1.634-1.713.89 0 1.624.63 1.624 1.713 0 1.1-.743 1.704-1.633 1.704zm-18.574-.905l.053-1.447V41.23h-.788v4.736h.272l2.91-3.218-.053 1.496v1.713h.778v-4.74h-.284l-2.888 3.182zm27.945 1.567h.788v-4.022h2.167v4.022h.797v-4.736h-3.752v4.736zm-22.65-1.567l.053-1.447V41.23h-.787v4.736h.271l2.91-3.223-.053 1.505v1.718h.779v-4.75h-.285l-2.888 3.183zm28.137.28c-.062.54-.196.772-.801.687l-.013.582c1.13.164 1.504-.151 1.606-1.243l.285-2.774h1.558v4.035h.796v-4.736h-3.053l-.378 3.449zm-85.342-3.484l-2.203 4.668v.103h.828l.463-.981h2.176l.467.98h.824v-.102l-2.19-4.668h-.365zm-.65 3.128l.837-1.895.828 1.895h-1.665zm49.96-2.006c.143-.488.312-.577.788-.541v-.541c-.979-.182-1.348.244-1.517.852-.129.492-.267.976-.543 1.123-.209.106-.57.115-.93.115v-2.1h-.797v4.736h.797v-1.997c.231 0 .685 0 .89-.075l1.361 2.072h.899v-.115l-1.562-2.268c.316-.284.472-.746.614-1.26zm53.178 2.034c-.209.63-.761.944-1.415.944-.974 0-1.62-.754-1.62-1.695 0-1.012.646-1.717 1.62-1.717.628.009 1.157.28 1.393.865h.761c-.254-1.07-1.215-1.584-2.149-1.584-1.3 0-2.421.9-2.421 2.432 0 1.526 1.121 2.41 2.412 2.41.965 0 1.944-.506 2.18-1.665h-.761v.01zm-11.539-.485h1.985v-.692h-1.985v-1.256h2.101v-.688h-2.897v4.736h2.937v-.715h-2.141v-1.385zm6.333-1.549c.142-.488.311-.577.787-.541v-.541c-.979-.182-1.348.244-1.517.852-.129.492-.267.976-.543 1.123-.209.106-.569.115-.93.115v-2.1h-.796v4.736h.796v-1.997c.231 0 .685 0 .89-.075l1.362 2.072h.894v-.115l-1.562-2.268c.316-.284.472-.746.619-1.26zM83.45 41.15c-1.29 0-2.424.905-2.424 2.449 0 1.545 1.108 2.45 2.412 2.45 1.437 0 2.434-1.008 2.434-2.45 0-1.544-1.122-2.45-2.421-2.45zm0 4.153c-.898 0-1.623-.603-1.623-1.704 0-1.096.734-1.713 1.633-1.713.89 0 1.624.63 1.624 1.713 0 1.1-.739 1.704-1.633 1.704zm34.061-.009c-.974 0-1.62-.754-1.62-1.695 0-1.012.646-1.717 1.62-1.717.628.009 1.157.28 1.393.865h.761c-.254-1.07-1.219-1.584-2.149-1.584-1.3 0-2.421.9-2.421 2.432 0 1.526 1.121 2.41 2.412 2.41.965 0 1.944-.506 2.18-1.665h-.77c-.204.635-.756.954-1.406.954zm-30.301-.616c-.061.54-.195.772-.8.687l-.013.582c1.13.164 1.504-.151 1.606-1.243l.285-2.774h1.557v4.035h.797v-4.736h-3.053l-.378 3.449zm-10.23-2.752h1.38v4.038h.774v-4.038h1.38v-.697H76.98v.697zm17.195-.776c-1.29 0-2.425.905-2.425 2.449 0 1.545 1.108 2.45 2.412 2.45 1.433 0 2.434-1.008 2.434-2.45 0-1.544-1.121-2.45-2.42-2.45zm0 4.153c-.899 0-1.624-.603-1.624-1.704 0-1.096.734-1.713 1.633-1.713.89 0 1.624.63 1.624 1.713 0 1.1-.743 1.704-1.633 1.704zm14.953-1.806c-1.367.27-1.914-.106-1.914-1.513v-.746h-.801v.746c0 1.948.89 2.565 2.715 2.25v1.73h.783v-4.726h-.783v2.26zm-11.424 2.468h.797v-4.04h2.038v-.696h-2.835v4.736zm14.396-2.1h1.985v-.692H112.1v-1.256h2.101v-.688h-2.897v4.736h2.937v-.715H112.1v-1.385zm-9.928.533l.053-1.447V41.23h-.787v4.736h.271l2.91-3.218-.053 1.496v1.713h.779v-4.74h-.285l-2.888 3.182zM46.663 11.99c-.053-1.016-.423-1.455-1.42-1.66a45.868 45.868 0 01-7.053-2.068A63.691 63.691 0 0124.333.931c-.61-.426-1.197-.409-1.816.026-.632.444-1.255.901-1.904 1.318C14.676 6.101 8.33 8.964 1.375 10.397c-.667.138-1.121.693-1.148 1.372L.134 14.55c.022 2.348.209 4.678.578 6.995A44.17 44.17 0 004.09 32.788c2.59 5.725 6.199 10.736 10.649 15.16 2.34 2.326 4.855 4.443 7.6 6.285.743.497 1.41.52 2.163.013a49.162 49.162 0 005.046-3.888c5.256-4.624 9.55-9.999 12.634-16.3a44.273 44.273 0 004.343-15.348 44.01 44.01 0 00.138-6.72z" fill="#20B63B"/><path d="M35.218 26.366c.182-.187.605-.289 1.268-.31v-.294H25.423v.293c.663.022 1.086.124 1.268.31.187.187.276.631.276 1.328v6.741c0 .702-.093 1.141-.276 1.327-.182.191-.605.293-1.268.316v.288h4.597v-.288c-.668-.023-1.09-.125-1.273-.316-.178-.186-.267-.625-.267-1.327V26.34h4.953v8.095c0 .702-.093 1.15-.276 1.332-.182.186-.6.288-1.26.31v.289h4.589v-.288c-.663-.023-1.086-.125-1.268-.316-.183-.186-.276-.63-.276-1.327v-6.741c0-.701.093-1.14.276-1.327z" fill="#fff"/><path d="M17.996 26.228c.485-2.734 1.847-7.265 6.088-9.085 4.24-1.82 8.393.724 8.393.724-2.083-.546-6.083-1.496-8.46.2-2.79 1.992-3.698 5.312-3.658 8.423.111-.755.552-1.93.788-2.623.396-1.18 1.201-2.228 2.03-3.031 1.419-1.376 3.194-1.886 5.237-1.886 2.683 0 5.09 1.393 6.555 3.612v-8.22H11.886v21.925h5.697c-.005-2.197.03-7.86.413-10.039z" fill="#fff"/></svg>