<svg width="52" height="59" fill="none" xmlns="http://www.w3.org/2000/svg"><path d="M51.924 12.424c-.06-1.111-.471-1.591-1.584-1.814a52.008 52.008 0 01-7.87-2.26A71.602 71.602 0 0127.004.338c-.68-.465-1.336-.446-2.026.03-.705.485-1.4.984-2.125 1.44-6.625 4.18-13.707 7.308-21.468 8.875A1.57 1.57 0 00.104 12.18L0 15.221c.025 2.566.233 5.112.646 7.644a47.518 47.518 0 003.769 12.284c2.89 6.255 6.917 11.73 11.883 16.566 2.613 2.54 5.418 4.854 8.482 6.867.83.543 1.575.567 2.414.014a54.7 54.7 0 005.631-4.248c5.865-5.053 10.657-10.926 14.099-17.813a47.61 47.61 0 004.846-16.77 46.99 46.99 0 00.154-7.341z" fill="#20B63B"/><path d="M39.152 28.128c.204-.203.675-.315 1.416-.34v-.32H28.222v.32c.74.025 1.212.137 1.415.34.209.204.308.689.308 1.45v7.367c0 .766-.104 1.246-.308 1.45-.203.208-.675.32-1.415.344v.315h5.13v-.315c-.745-.024-1.217-.136-1.42-.344-.199-.204-.298-.684-.298-1.45v-8.846h5.527v8.846c0 .766-.105 1.256-.308 1.455-.204.203-.67.315-1.405.34v.314h5.12v-.315c-.74-.024-1.212-.136-1.416-.344-.203-.204-.308-.689-.308-1.45v-7.367c0-.766.105-1.246.308-1.45z" fill="#fff"/><path d="M19.93 27.983c.541-2.987 2.06-7.939 6.794-9.927 4.732-1.988 9.365.79 9.365.79-2.324-.596-6.788-1.634-9.44.219-3.114 2.177-4.127 5.805-4.082 9.204.124-.824.616-2.11.879-2.866.442-1.29 1.34-2.434 2.264-3.312 1.584-1.503 3.566-2.061 5.845-2.061 2.995 0 5.681 1.523 7.315 3.947v-8.98H13.112v23.956h6.356c-.005-2.4.035-8.589.462-10.97z" fill="#fff"/></svg>