<svg width="35" height="35" fill="none" xmlns="http://www.w3.org/2000/svg"><rect width="35" height="35" rx="12" fill="#20B63B"/><path fill-rule="evenodd" clip-rule="evenodd" d="M26.712 23.145a3.49 3.49 0 001.584-.355c.206-.207.352-.476.473-.699.085-.157.158-.292.231-.365 0-.355 0-.71-.176-1.065-.528-.887-1.936-1.242-4.048-1.242-.332 0-.665.04-1.016.082-.392.046-.808.096-1.272.096-.47-.237-.782-.473-1.095-.71a10.551 10.551 0 00-.489-.355c-1.056-1.064-2.112-2.661-2.816-4.613v-.177c.704-2.307 1.232-5.145 0-6.387-.352-.178-.704-.355-1.056-.355h-.352c-.704 0-1.232.71-1.408 1.42-.704 2.483-.352 3.725.352 5.854-.075.226-.149.454-.224.686-.46 1.412-.956 2.935-1.712 4.46-.323.569-.608 1.1-.874 1.595-.314.585-.6 1.117-.886 1.598-.412.207-.763.415-1.055.587-.206.122-.383.226-.529.3C8.232 24.742 7.176 26.339 7 27.226c0 .355 0 .532.176.887v.177l.88.533c.176.177.352.177.704.177 1.408 0 3.168-1.774 5.28-5.5.101-.102.144-.145.196-.164.038-.013.081-.013.156-.013 1.76-.71 4.048-1.065 7.04-1.42 1.76.887 3.872 1.242 5.28 1.242zM16.84 11.211c-.05.169-.105.357-.16.58-.352-1.597-.352-2.84 0-3.904.176 0 .176-.177.176-.177l.176.177v.178c.176.177.176.887 0 1.774v.355c0 .365-.083.646-.192 1.016zm-6.32 13.353c.176-.177.528-.354.88-.532-1.056 2.13-2.112 3.194-3.168 3.371.176-.532 1.056-1.774 2.288-2.838zm13.728-3.903c2.464 0 3.168.533 3.344.71 0 .178.176.178.176.178v.177h-.528c-.88 0-2.112-.355-3.344-.887v-.178h.352zm-8.675-1.597c.53-1.17 1.011-2.234 1.283-3.193.704 1.597 1.76 3.016 2.64 4.08.176.178.352.355.704.533-1.408.177-3.52.71-5.808 1.597h-.352c.176-.355.352-.665.528-.976.176-.31.352-.621.528-.976.16-.364.321-.719.477-1.065z" fill="#fff"/></svg>