<svg width="120" height="1870" fill="none" xmlns="http://www.w3.org/2000/svg"><path d="M29.368 70.905c-4.437 9.192-11.875 13.787-22.315 13.787-8.222 0-14.942-2.888-20.162-8.666-5.09-5.646-7.635-13.721-7.635-24.226V0h97.875v47.861c0 10.373-2.545 18.383-7.634 24.029-5.09 5.778-11.745 8.666-19.967 8.666-8.613 0-15.333-3.217-20.162-9.65zm27.014-25.407V23.832H38.764v21.666c0 7.221 2.936 10.832 8.809 10.832 5.872 0 8.809-3.61 8.809-10.832zM.593 48.846c0 7.353 3.132 11.03 9.396 11.03 2.74 0 4.894-.985 6.46-2.955 1.566-1.97 2.349-4.661 2.349-8.075V23.832H.593v25.014zM77.13 175.44v25.407h-97.874V175.44h11.55c-9.527-7.616-14.29-18.318-14.29-32.105 0-13.13 4.959-24.423 14.877-33.877 10.048-9.322 22.315-13.984 36.8-13.984 14.486 0 26.688 4.662 36.606 13.984 10.048 9.454 15.072 20.747 15.072 33.877 0 13.787-4.763 24.489-14.29 32.105h11.55zM8.228 128.563c-5.09 5.121-7.634 11.621-7.634 19.499 0 7.879 2.545 14.378 7.634 19.499 5.22 5.253 11.876 7.879 19.967 7.879 8.09 0 14.68-2.626 19.77-7.879 5.22-5.121 7.83-11.62 7.83-19.499 0-7.878-2.61-14.378-7.83-19.499-5.09-5.12-11.68-7.681-19.77-7.681-8.091 0-14.747 2.561-19.967 7.681zM77.13 339.305v25.408h-97.874V223.887h97.875v25.408H2.942v32.301h74.189v25.408H2.942v32.301h74.189zm0 123.495v25.407h-97.874V462.8h11.55c-9.527-7.616-14.29-18.317-14.29-32.105 0-13.13 4.959-24.422 14.877-33.876 10.048-9.323 22.315-13.985 36.8-13.985 14.486 0 26.688 4.662 36.606 13.984 10.048 9.455 15.072 20.747 15.072 33.877 0 13.788-4.763 24.489-14.29 32.105h11.55zM8.228 415.924c-5.09 5.12-7.634 11.62-7.634 19.498 0 7.879 2.545 14.378 7.634 19.499 5.22 5.253 11.876 7.879 19.967 7.879 8.09 0 14.68-2.626 19.77-7.879 5.22-5.121 7.83-11.62 7.83-19.499 0-7.878-2.61-14.378-7.83-19.498-5.09-5.121-11.68-7.682-19.77-7.682-8.091 0-14.747 2.561-19.967 7.682zM77.13 625.089v25.408h-97.873v-25.408h37.192v-39.194h-37.193v-25.408h97.875v25.408H40.134v39.194h36.997zM-8.607 757.681c-9.918-10.11-14.877-22.453-14.877-37.028s4.959-26.918 14.877-37.028c10.048-9.98 22.315-14.969 36.8-14.969 14.486 0 26.688 4.989 36.606 14.969 10.048 10.11 15.072 22.453 15.072 37.028s-5.024 26.918-15.072 37.028c-9.918 10.111-22.12 15.166-36.605 15.166-14.486 0-26.753-5.055-36.801-15.166zm17.422-56.133c-5.09 5.121-7.635 11.489-7.635 19.105s2.545 13.984 7.635 19.105c5.089 5.121 11.549 7.681 19.379 7.681 7.83 0 14.29-2.56 19.379-7.681 5.09-5.121 7.634-11.489 7.634-19.105s-2.545-13.984-7.634-19.105c-5.09-4.99-11.55-7.485-19.38-7.485-7.83 0-14.289 2.495-19.378 7.485zm20.553 160.078c-4.437 9.192-11.875 13.787-22.315 13.787-8.222 0-14.942-2.888-20.162-8.666-5.09-5.646-7.635-13.721-7.635-24.226v-51.8h97.875v47.861c0 10.373-2.545 18.383-7.634 24.029-5.09 5.778-11.745 8.666-19.967 8.666-8.613 0-15.333-3.217-20.162-9.651zm27.014-25.407v-21.666H38.764v21.666c0 7.221 2.936 10.832 8.809 10.832 5.872 0 8.809-3.611 8.809-10.832zM.593 839.567c0 7.353 3.132 11.03 9.396 11.03 2.74 0 4.894-.985 6.46-2.955 1.566-1.969 2.349-4.661 2.349-8.075v-25.014H.593v25.014zM77.13 966.161v25.407h-97.873v-25.407h11.549c-9.527-7.616-14.29-18.317-14.29-32.105 0-13.13 4.959-24.423 14.877-33.877 10.048-9.322 22.315-13.984 36.8-13.984 14.486 0 26.688 4.662 36.606 13.984 10.048 9.454 15.072 20.747 15.072 33.877 0 13.788-4.763 24.489-14.29 32.105h11.55zM8.228 919.285c-5.09 5.12-7.634 11.62-7.634 19.498 0 7.879 2.545 14.378 7.634 19.499 5.22 5.253 11.876 7.879 19.967 7.879 8.09 0 14.68-2.626 19.77-7.879 5.22-5.121 7.83-11.62 7.83-19.499 0-7.878-2.61-14.378-7.83-19.498-5.09-5.121-11.68-7.682-19.77-7.682-8.091 0-14.747 2.561-19.967 7.682zM77.13 1093.59h-97.873v-24.82H9.793v-8.86l-30.537-22.65v-29.35l33.474 24.62c2.61-6.3 6.72-11.36 12.332-15.16 5.742-3.68 11.875-5.52 18.4-5.52 9.135 0 17.03 3.28 23.686 9.85 6.655 6.56 9.983 15.16 9.983 25.8v46.09zm-22.51-44.12c0-3.68-1.11-6.76-3.328-9.26-2.088-2.36-4.959-3.54-8.613-3.54-3.523 0-6.33 1.18-8.417 3.54-2.088 2.5-3.132 5.58-3.132 9.26v19.3h23.49v-19.3zm22.511 229.96v27.18l-97.874-35.85c-27.536-9.98-40.586-27.31-39.15-51.99h23.49c-.13 6.69 1.109 11.95 3.719 15.75 2.61 3.94 6.981 7.09 13.115 9.46l96.7-39.79v26.99l-65.772 26.39 65.772 21.86zm0 117.61h-97.874v-25.41h73.601v-27.18h-32.69c-30.276 0-43.913-13.85-40.912-41.55H2.942c-1.305 5.25-.457 9.25 2.545 12.01 3.132 2.76 8.482 4.14 16.051 4.14h55.593v77.99zm-31.32 67.54c0 11.16-3.067 20.15-9.2 26.98-6.003 6.83-14.029 10.24-24.077 10.24-10.049 0-18.14-3.41-24.273-10.24-6.003-6.83-9.005-15.82-9.005-26.98v-44.51h97.875v25.4h-31.32v19.11zm31.32 48.06v25.4h-97.874v-25.4H77.13zm-75.56-47.86c0 3.54.98 6.43 2.937 8.66 2.088 2.37 4.763 3.55 8.026 3.55 3.262 0 5.937-1.18 8.025-3.55 2.088-2.23 3.133-5.12 3.133-8.66v-19.31H1.572v19.31zm-25.055 143.15c0-15.5 4.959-28.04 14.877-37.62 9.918-9.46 22.511-14.18 37.78-14.18 16.703 0 29.558 2.49 38.562 7.48 9.135 4.99 17.422 15.03 24.86 30.13 1.044 2.24 2.48 5.39 4.307 9.46 1.957 4.07 3.327 6.83 4.11 8.27.783 1.58 1.958 3.68 3.524 6.3 1.566 2.63 2.936 4.47 4.111 5.52 1.305 1.18 2.936 2.43 4.893 3.74a27.07 27.07 0 006.46 3.15l-11.941 20.88c-7.96-1.71-14.159-5.58-18.596-11.62-4.306-5.91-8.743-14.84-13.31-26.79-3.263-8.4-6.526-14.51-9.788-18.31-3.263-3.81-7.178-6.57-11.745-8.28 7.438 7.36 11.158 17.2 11.158 29.55 0 10.9-3.98 20.61-11.941 29.15-7.83 8.53-18.27 12.8-31.32 12.8-13.441 0-24.469-4.6-33.082-13.79-8.612-9.06-12.919-21.01-12.919-35.84zm29.754-18.12c-4.437 4.85-6.656 10.83-6.656 17.92 0 7.09 2.154 12.93 6.46 17.53 4.307 4.59 9.788 6.89 16.443 6.89 6.655 0 12.137-2.3 16.443-6.89 4.437-4.6 6.655-10.51 6.655-17.73 0-6.43-2.022-12.21-6.068-17.33-4.045-4.99-9.461-7.49-16.247-7.49-6.916 0-12.593 2.37-17.03 7.1zm-27.014 173.99v-29.55l44.436-35.85h-44.436V1673h97.875v25.4H34.066l43.065 33.88v30.33l-48.35-39.59-49.525 40.78zm97.875 80.41v25.4h-97.874v-25.4h11.549c-9.527-7.62-14.29-18.32-14.29-32.11 0-13.13 4.959-24.42 14.877-33.88 10.048-9.32 22.315-13.98 36.8-13.98 14.486 0 26.688 4.66 36.606 13.98 10.048 9.46 15.072 20.75 15.072 33.88 0 13.79-4.763 24.49-14.29 32.11h11.55zm-68.904-46.88c-5.09 5.12-7.634 11.62-7.634 19.5 0 7.88 2.545 14.38 7.634 19.5 5.22 5.25 11.876 7.88 19.967 7.88 8.09 0 14.68-2.63 19.77-7.88 5.22-5.12 7.83-11.62 7.83-19.5 0-7.88-2.61-14.38-7.83-19.5-5.09-5.12-11.68-7.68-19.77-7.68-8.091 0-14.747 2.56-19.967 7.68z" fill="#ECF6F8"/></svg>