<svg width="58" height="83" fill="none" xmlns="http://www.w3.org/2000/svg"><path d="M29.05 48.691c7.317 0 14.2 1.65 19.432 4.668 5.558 3.213 8.62 7.598 8.62 12.352 0 4.754-3.062 9.14-8.62 12.352-5.233 3.018-12.115 4.668-19.432 4.668-7.317 0-14.222-1.65-19.432-4.668C4.059 74.85.998 70.465.998 65.711c0-4.754 3.061-9.14 8.62-12.352C14.85 50.34 21.754 48.69 29.05 48.69zm0 30.132c6.622 0 12.832-1.476 17.478-4.146 4.299-2.475 6.665-5.666 6.665-8.944 0-3.3-2.366-6.47-6.665-8.966-4.646-2.67-10.834-4.146-17.478-4.146-6.622 0-12.832 1.476-17.478 4.146-4.3 2.475-6.666 5.666-6.666 8.944 0 3.3 2.367 6.47 6.666 8.944 4.646 2.692 10.856 4.168 17.478 4.168z" fill="#ECF6F8"/><path d="M29.05 0a1.97 1.97 0 011.802 1.193l25.273 59.98a1.971 1.971 0 01-1.02 2.563c-.977.434-2.128-.022-2.562-1-1-2.213-3.062-4.232-6.015-5.925-4.624-2.67-10.834-4.103-17.478-4.103-6.622 0-12.832 1.432-17.478 4.102-2.93 1.694-5.015 3.734-5.992 5.949-.435.977-1.585 1.41-2.562.977a1.979 1.979 0 01-1.02-2.562L27.27 1.194a1.918 1.918 0 011.78-1.195zm19.563 53.424L29.05 7.011 9.488 53.424c.043-.022.087.108.13.087 5.233-3.018 12.115-4.516 19.432-4.516 7.317 0 14.222 1.498 19.433 4.516.043.043.086-.109.13-.087z" fill="#ECF6F8"/><path d="M44.548 76.698l.645-.98-32.04-21.062-.644.98 32.04 21.062z" fill="#ECF6F8"/><path d="M13.156 76.69l32.04-21.062-.645-.98-32.04 21.063.645.98z" fill="#ECF6F8"/></svg>