<svg width="39" height="34" viewBox="0 0 39 34" fill="none" xmlns="http://www.w3.org/2000/svg">
<path d="M34.6621 13.6C34.5204 13.6 34.3811 13.61 34.244 13.6276L30.3152 5.75333C30.8922 5.14201 31.248 4.31279 31.248 3.4C31.248 1.52524 29.7497 0 27.9081 0C26.4568 0 25.2194 0.947618 24.7598 2.26667H13.244C12.7845 0.947618 11.547 0 10.0957 0C8.2541 0 6.75585 1.52524 6.75585 3.4C6.75585 4.31279 7.11165 5.14201 7.68863 5.75333L3.75994 13.6276C3.62278 13.61 3.48347 13.6 3.34179 13.6C1.5002 13.6 0.00195312 15.1252 0.00195312 17C0.00195312 18.8748 1.5002 20.4 3.34179 20.4C3.48347 20.4 3.62278 20.39 3.75994 20.3724L7.6887 28.2467C7.11165 28.858 6.75585 29.6872 6.75585 30.6C6.75585 32.4748 8.2541 34 10.0957 34C11.547 34 12.7845 33.0524 13.244 31.7333H24.7598C25.2194 33.0524 26.4568 34 27.9081 34C29.7497 34 31.248 32.4748 31.248 30.6C31.248 29.6872 30.8922 28.858 30.3152 28.2467L34.244 20.3724C34.3811 20.39 34.5204 20.4 34.6621 20.4C36.5037 20.4 38.002 18.8748 38.002 17C38.002 15.1252 36.5037 13.6 34.6621 13.6ZM32.2539 14.6444L26.7826 12.7466C26.79 12.6542 26.7949 12.561 26.7949 12.4667C26.7949 11.443 26.3476 10.5243 25.6422 9.90042L27.8831 6.79932C27.8914 6.7994 27.8997 6.8 27.9081 6.8C28.0498 6.8 28.1891 6.78995 28.3262 6.77242L32.2539 14.6444ZM22.4563 15.7112C22.7718 15.8122 23.1072 15.8667 23.455 15.8667C24.3994 15.8667 25.2528 15.465 25.8608 14.8214L31.2634 16.6954L19.5593 19.6579C19.5577 19.6553 19.5561 19.6527 19.5544 19.6501L22.4563 15.7112ZM22.3418 12.4667C22.3418 11.8417 22.8412 11.3333 23.455 11.3333C24.0689 11.3333 24.5683 11.8417 24.5683 12.4667C24.5683 13.0916 24.0689 13.6 23.455 13.6C22.8412 13.6 22.3418 13.0916 22.3418 12.4667ZM27.9081 2.26667C28.522 2.26667 29.0214 2.77508 29.0214 3.4C29.0214 4.02492 28.522 4.53333 27.9081 4.53333C27.2943 4.53333 26.7949 4.02492 26.7949 3.4C26.7949 2.77508 27.2943 2.26667 27.9081 2.26667ZM24.7598 4.53333C24.9546 5.09252 25.2893 5.58454 25.721 5.96624L23.4801 9.06735C23.4717 9.06727 23.4634 9.06667 23.455 9.06667C22.705 9.06667 22.0119 9.31978 21.4538 9.74636L13.7726 4.53333H24.7598ZM20.2175 11.6315C20.1509 11.8988 20.1152 12.1786 20.1152 12.4667C20.1152 13.1628 20.322 13.8103 20.676 14.3499L17.7741 18.2888C17.4586 18.1879 17.1231 18.1333 16.7754 18.1333C16.7543 18.1333 16.7335 18.1345 16.7126 18.1349L12.35 6.29196L20.2175 11.6315ZM17.8886 21.5333C17.8886 22.1583 17.3892 22.6667 16.7754 22.6667C16.1615 22.6667 15.6621 22.1583 15.6621 21.5333C15.6621 20.9084 16.1615 20.4 16.7754 20.4C17.3892 20.4 17.8886 20.9084 17.8886 21.5333ZM10.0957 2.26667C10.7095 2.26667 11.209 2.77508 11.209 3.4C11.209 4.02492 10.7095 4.53333 10.0957 4.53333C9.48182 4.53333 8.9824 4.02492 8.9824 3.4C8.9824 2.77508 9.48182 2.26667 10.0957 2.26667ZM9.67761 6.77242C9.81469 6.78995 9.954 6.8 10.0957 6.8C10.1168 6.8 10.1375 6.79879 10.1585 6.79841L14.6281 18.9319C14.4485 19.0858 14.2853 19.2586 14.141 19.4472L6.68007 16.9358C6.66374 16.0485 6.31224 15.2436 5.74885 14.6467L9.67761 6.77242ZM3.34179 18.1333C2.72793 18.1333 2.22851 17.6249 2.22851 17C2.22851 16.3751 2.72793 15.8667 3.34179 15.8667C3.95565 15.8667 4.45507 16.3751 4.45507 17C4.45507 17.6249 3.95565 18.1333 3.34179 18.1333ZM10.0957 31.7333C9.48182 31.7333 8.9824 31.2249 8.9824 30.6C8.9824 29.9751 9.48182 29.4667 10.0957 29.4667C10.7095 29.4667 11.209 29.9751 11.209 30.6C11.209 31.2249 10.7095 31.7333 10.0957 31.7333ZM11.0945 27.3554C10.7789 27.2546 10.4435 27.2 10.0957 27.2C9.954 27.2 9.81469 27.21 9.67754 27.2276L5.74885 19.3533C5.82908 19.2683 5.90493 19.1792 5.97618 19.0862L13.4372 21.5976C13.4495 22.2692 13.6534 22.8937 13.9964 23.4166L11.0945 27.3554ZM13.244 29.4667C13.1511 29.2 13.0267 28.9484 12.8747 28.7168L15.7766 24.7779C16.0921 24.8789 16.4276 24.9333 16.7754 24.9333C17.4218 24.9333 18.0256 24.7448 18.5375 24.4198L24.7345 29.4667H13.244ZM27.9081 31.7333C27.2943 31.7333 26.7949 31.2249 26.7949 30.6C26.7949 29.9751 27.2943 29.4667 27.9081 29.4667C28.522 29.4667 29.0214 29.9751 29.0214 30.6C29.0214 31.2249 28.522 31.7333 27.9081 31.7333ZM28.3263 27.2276C28.1891 27.21 28.0498 27.2 27.9081 27.2C27.2617 27.2 26.6579 27.3885 26.1461 27.7136L19.9291 22.6504C20.0157 22.3979 20.0741 22.1322 20.0998 21.8567L31.8782 18.8754C31.9896 19.0463 32.116 19.206 32.2551 19.3533L28.3263 27.2276ZM34.662 18.1333C34.0482 18.1333 33.5488 17.6249 33.5488 17C33.5488 16.3751 34.0482 15.8667 34.662 15.8667C35.2759 15.8667 35.7753 16.3751 35.7753 17C35.7753 17.6249 35.2759 18.1333 34.662 18.1333Z" fill="#20B63B"/>
</svg>
