<svg width="33" height="34" viewBox="0 0 33 34" fill="none" xmlns="http://www.w3.org/2000/svg">
<path d="M30.4271 3.63488C28.6341 1.18474 26.7503 0.0435962 24.499 0.0435962C23.0415 0.0435962 21.6271 0.517751 20.2617 0.975325L20.2165 0.990416C18.7599 1.47556 17.384 1.93407 15.8995 1.93407C14.4118 1.93407 12.9536 1.43774 11.5345 0.955017C10.1423 0.485334 8.70288 0 7.26202 0C4.99953 0 3.16006 1.16424 1.47398 3.66264C-1.17831 7.58052 0.327577 11.776 1.54231 15.1596C2.08328 16.6649 2.59412 18.0866 2.59412 19.1602C2.59412 24.6721 3.74015 34 8.03572 34C10.9755 34 11.88 30.5356 12.6801 27.4704C13.5297 24.2438 14.2654 21.9598 16.0038 21.9598C17.5036 21.9598 18.0775 23.4385 18.873 26.9834C19.5615 30.0806 20.4182 33.9348 24.0312 33.9348C29.0725 33.9348 29.4643 22.6206 29.4643 19.1531C29.4643 18.1353 29.9583 16.7255 30.4814 15.2328L30.5022 15.1732C31.7057 11.7199 33.2035 7.42253 30.4271 3.63488ZM27.9045 14.2416L27.8854 14.2968C27.2805 16.0229 26.7092 17.6533 26.7092 19.1529C26.7092 22.444 26.3679 25.6342 25.7726 27.9055C25.0771 30.5589 24.2797 31.14 24.0312 31.14C22.9246 31.14 22.3936 30.1143 21.558 26.3554C20.8769 23.3208 19.9443 19.1648 16.0038 19.1648C12.0152 19.1648 10.8609 23.5483 10.0144 26.7636C9.55263 28.5322 8.85498 31.205 8.03591 31.205C7.90879 31.205 7.10846 30.6446 6.37572 27.9813C5.72363 25.6115 5.34982 22.3961 5.34982 19.1598C5.34982 17.5929 4.75798 15.946 4.12737 14.1909C3.03056 11.1357 1.89647 7.97624 3.74695 5.24272C5.20232 3.08546 6.34064 2.79463 7.26202 2.79463C8.25688 2.79463 9.42662 3.18904 10.6669 3.60731C12.2113 4.13288 13.9617 4.7287 15.8993 4.7287C17.8245 4.7287 19.5521 4.15338 21.0762 3.64569L21.1238 3.62985C22.3379 3.22276 23.4851 2.83841 24.499 2.83841C25.4452 2.83841 26.6267 3.13091 28.2153 5.3016C30.1166 7.89501 28.9921 11.1215 27.9045 14.2416Z" fill="#20B63B"/>
</svg>
