<svg width="35" height="34" viewBox="0 0 35 34" fill="none" xmlns="http://www.w3.org/2000/svg">
<path d="M34.0019 16.9979C34.0012 16.653 33.8221 16.3331 33.5285 16.1521L30.0732 14.022L33.5322 11.8691C33.8239 11.6875 34.0014 11.3684 34.0019 11.0249C34.0025 10.6813 33.8259 10.3617 33.5347 10.1793L17.5308 0.152003C17.2074 -0.0506678 16.7965 -0.0506678 16.4731 0.152003L0.469187 10.1793C0.178063 10.3617 0.0014892 10.6813 0.00195404 11.0249C0.00248529 11.3685 0.179989 11.6876 0.471711 11.8691L3.90703 14.0072L0.470184 16.1554C0.178661 16.3376 0.00168842 16.6572 0.00202045 17.001C0.00235248 17.3448 0.179922 17.6641 0.471777 17.8457L3.9071 19.9839L0.470184 22.1319C0.179126 22.3139 0.00221967 22.6328 0.00202045 22.9761C0.00182123 23.3193 0.178395 23.6385 0.469254 23.8207L16.4731 33.848C16.6349 33.9493 16.8184 34 17.002 34C17.1855 34 17.3691 33.9493 17.5308 33.848L33.5347 23.8207C33.8265 23.6379 34.0032 23.3173 34.0019 22.973C34.0007 22.6286 33.8217 22.3094 33.5285 22.1287L30.0732 19.9986L33.5322 17.8457C33.825 17.6635 34.0027 17.3427 34.0019 16.9979ZM2.87867 11.0207L17.002 2.17168L31.1253 11.0207C30.9896 11.1052 17.4067 19.5592 17.002 19.8112L2.87867 11.0207ZM31.1188 22.9835L17.002 31.8285L2.87588 22.9777L5.79038 21.1561L16.4757 27.8066C16.6368 27.9069 16.8194 27.9571 17.002 27.9571C17.1846 27.9571 17.3672 27.9069 17.5283 27.8066L28.1841 21.1744L31.1188 22.9835ZM17.002 25.7877L2.88033 16.9983L5.79038 15.1795L16.4757 21.8301C16.6368 21.9304 16.8194 21.9805 17.002 21.9805C17.1846 21.9805 17.3672 21.9304 17.5283 21.8301L28.1841 15.1979L31.1143 17.0041C31.0333 17.0545 17.3759 25.555 17.002 25.7877Z" fill="#20B63B"/>
</svg>
