<svg width="219" height="82" viewBox="0 0 219 82" fill="none" xmlns="http://www.w3.org/2000/svg">
<path d="M219 67.1854L198.179 82L178.644 68.0984L159.15 82L139.614 68.0984L120.079 82L100.585 68.0984L81.0499 82L61.5146 68.0984L42.0207 82L22.4854 68.0984L2.95005 82L-16.5853 68.0983L-36.0791 82L-55.6144 68.0983L-75.1497 82L-94.6436 68.0983L-114.179 82L-135 67.1853L-132.387 63.4921L-114.179 76.4808L-94.6436 62.5792L-75.1497 76.4808L-55.6144 62.5792L-36.0791 76.4808L-16.5853 62.5792L2.95005 76.4808L22.4854 62.5792L42.0207 76.4808L61.5146 62.5792L81.0499 76.4808L100.585 62.5792L120.079 76.4808L139.614 62.5792L159.15 76.4808L178.644 62.5792L198.179 76.4808L216.387 63.4921L219 67.1854Z" fill="#FCF1EF"/>
<path d="M219 46.312L198.179 61.1265L178.644 47.2249L159.15 61.1264L139.614 47.2249L120.079 61.1264L100.585 47.2249L81.0499 61.1264L61.5146 47.2249L42.0207 61.1264L22.4854 47.2249L2.95006 61.1264L-16.5853 47.2249L-36.0791 61.1264L-55.6144 47.2249L-75.1497 61.1264L-94.6436 47.2249L-114.179 61.1264L-135 46.312L-132.387 42.6602L-114.179 55.6073L-94.6436 41.7058L-75.1497 55.6073L-55.6144 41.7058L-36.0791 55.6073L-16.5853 41.7058L2.95006 55.6073L22.4854 41.7058L42.0207 55.6073L61.5146 41.7058L81.0499 55.6073L100.585 41.7058L120.079 55.6073L139.614 41.7058L159.15 55.6073L178.644 41.7058L198.179 55.6073L216.387 42.6603L219 46.312Z" fill="#FCF1EF"/>
<path d="M219 25.4383L198.179 40.2944L178.644 26.3928L159.15 40.2944L139.614 26.3928L120.079 40.2944L100.585 26.3928L81.0499 40.2944L61.5146 26.3927L42.0207 40.2944L22.4854 26.3927L2.95006 40.2944L-16.5853 26.3927L-36.0791 40.2944L-55.6144 26.3927L-75.1497 40.2944L-94.6436 26.3927L-114.179 40.2944L-135 25.4383L-132.387 21.7865L-114.179 34.7752L-94.6436 20.8736L-75.1497 34.7752L-55.6144 20.8736L-36.0791 34.7752L-16.5853 20.8736L2.95006 34.7752L22.4854 20.8736L42.0207 34.7752L61.5146 20.8736L81.0499 34.7752L100.585 20.8736L120.079 34.7752L139.614 20.8736L159.15 34.7752L178.644 20.8736L198.179 34.7752L216.387 21.7865L219 25.4383Z" fill="#FCF1EF"/>
<path d="M219 4.60628L198.179 19.4208L178.644 5.5192L159.15 19.4208L139.614 5.51919L120.079 19.4208L100.585 5.51919L81.0499 19.4208L61.5146 5.51918L42.0207 19.4208L22.4854 5.51918L2.95006 19.4208L-16.5853 5.51917L-36.0791 19.4208L-55.6144 5.51917L-75.1497 19.4208L-94.6436 5.51916L-114.179 19.4208L-135 4.60623L-132.387 0.954442L-114.179 13.9016L-94.6436 -1.37098e-05L-75.1497 13.9016L-55.6144 -8.59054e-06L-36.0791 13.9016L-16.5853 -3.47128e-06L2.95006 13.9016L22.4854 1.65344e-06L42.0207 13.9016L61.5146 6.7727e-06L81.0499 13.9016L100.585 1.18974e-05L120.079 13.9016L139.614 1.70167e-05L159.15 13.9017L178.644 2.21359e-05L198.179 13.9017L216.387 0.954488L219 4.60628Z" fill="#FCF1EF"/>
</svg>
