<svg width="113" height="225" viewBox="0 0 113 225" fill="none" xmlns="http://www.w3.org/2000/svg">
<path d="M-112 112.481C-112 113.861 -111.919 115.322 -111.919 116.701L-3.64021 224.882C-2.26035 224.963 -0.880409 224.963 0.499451 224.963C3.98969 224.963 7.47985 224.801 10.9701 224.476L-111.513 102.175C-111.838 105.502 -112 108.992 -112 112.481Z" fill="#ECF6F8"/>
<path d="M-106.725 78.3961L34.671 219.688C38.4048 218.471 41.9763 217.172 45.5477 215.549L-102.666 67.5212C-104.127 71.0109 -105.507 74.663 -106.725 78.3961Z" fill="#ECF6F8"/>
<path d="M-92.4373 49.099L63.9744 205.324C66.8965 203.295 69.7374 201.185 72.4971 198.912L-86.025 40.5776C-88.2977 43.3369 -90.408 46.1774 -92.4373 49.099Z" fill="#ECF6F8"/>
<path d="M-71.741 26.2945L86.8621 184.629C89.1348 181.87 91.3263 179.029 93.3556 176.108L-63.2183 19.802C-66.2215 21.8309 -69.0624 24.0221 -71.741 26.2945Z" fill="#ECF6F8"/>
<path d="M-44.9531 9.57593L103.504 157.766C105.046 154.277 106.426 150.625 107.644 146.891L-34.1577 5.43701C-37.8914 6.65435 -41.4629 8.03397 -44.9531 9.57593Z" fill="#ECF6F8"/>
<path d="M0.50065 0C-3.2331 0 -6.96681 0.162321 -10.6194 0.568099L112.432 123.357C112.757 119.786 113 116.134 113 112.482C113 111.264 112.919 110.047 112.919 108.83L3.90969 0.0811853C2.77333 2.97189e-05 1.63701 0 0.50065 0Z" fill="#ECF6F8"/>
<path d="M39.2148 6.81714L106.017 73.4459C94.653 42.6068 70.1401 18.0978 39.2148 6.81714Z" fill="#ECF6F8"/>
</svg>
