<svg width="178" height="55" viewBox="0 0 178 55" fill="none" xmlns="http://www.w3.org/2000/svg">
<path d="M118.464 31.9178C119.278 30.9769 120.551 30.5109 122.282 30.5109H126.242C127.146 30.5109 127.915 30.6307 128.561 30.8571C129.206 31.0923 129.784 31.5539 130.292 32.2462C130.799 32.9386 131.168 33.8528 131.395 34.9801H131.783V30.0848C130.737 30.0848 130.118 29.8851 129.927 29.4946C129.74 29.104 129.642 28.0744 129.642 26.41V17.8C129.642 16.7748 129.776 16.1268 130.047 15.8561C130.31 15.5809 130.924 15.43 131.885 15.399V14.9729H119.082V15.399C119.897 15.43 120.439 15.4877 120.702 15.5809C120.96 15.6697 121.192 15.896 121.378 16.2555C121.57 16.615 121.663 17.1787 121.663 17.9376C121.663 19.2113 121.516 20.849 121.218 22.8418C120.925 24.8256 120.386 26.5077 119.616 27.8746C118.842 29.2416 117.85 29.9739 116.617 30.0848V34.9757H117.009C117.169 33.875 117.649 32.8587 118.464 31.9178ZM121.721 25.3538C122.255 23.5297 122.616 20.3475 122.807 15.8206H127.453V27.6483C127.453 28.6336 127.35 29.215 127.146 29.3925C126.945 29.57 126.336 29.6632 125.312 29.6632H119.567C120.471 28.6203 121.187 27.1779 121.721 25.3538Z" fill="#20B63B"/>
<path d="M153.672 30.0849H153.111C152.746 30.0849 152.399 29.9916 152.074 29.8052C151.825 29.6677 151.67 29.5035 151.585 29.3126C151.492 29.0641 151.438 28.5448 151.438 27.7593V23.0282H158.647V27.7593C158.647 28.6913 158.554 29.2815 158.362 29.5212C158.073 29.8984 157.61 30.0849 156.978 30.0849H156.431V30.5109H163.066V30.0893H162.514C162.149 30.0893 161.802 29.9961 161.464 29.8097C161.224 29.6721 161.068 29.5079 160.992 29.317C160.89 29.0685 160.845 28.5492 160.845 27.7637V17.7334C160.845 16.9701 160.89 16.4686 160.974 16.2156C161.063 15.9715 161.228 15.7806 161.473 15.6608C161.802 15.4833 162.149 15.399 162.51 15.399H163.062V14.9729H156.427V15.399H156.974C157.339 15.399 157.686 15.4877 158.02 15.6697C158.26 15.8073 158.42 15.9715 158.496 16.1623C158.594 16.4153 158.643 16.939 158.643 17.7334V22.1805H151.434V17.7334C151.434 16.9701 151.483 16.4686 151.576 16.2156C151.665 15.9715 151.83 15.7806 152.07 15.6608C152.399 15.4833 152.742 15.399 153.107 15.399H153.668V14.9729H147.019V15.399H147.567C147.936 15.399 148.288 15.4877 148.626 15.6697C148.857 15.8073 149.013 15.9715 149.093 16.1623C149.191 16.4153 149.244 16.939 149.244 17.7334V27.7593C149.244 28.6913 149.146 29.2815 148.964 29.5212C148.67 29.8984 148.207 30.0849 147.567 30.0849H147.019V30.5109H153.668V30.0849H153.672Z" fill="#20B63B"/>
<path d="M146.08 26.6141H145.622C145.123 27.5683 144.643 28.2829 144.167 28.7578C143.802 29.1172 143.419 29.3525 143.023 29.4767C142.631 29.601 141.99 29.6587 141.114 29.6587H138.484C138.057 29.6587 137.763 29.6143 137.612 29.53C137.46 29.4412 137.354 29.3214 137.291 29.1705C137.233 29.024 137.202 28.6024 137.202 27.9145V22.7973H140.611C141.261 22.7973 141.741 22.8772 142.053 23.0281C142.364 23.179 142.587 23.3965 142.725 23.6583C142.832 23.8758 142.943 24.3595 143.045 25.114H143.468V19.7039H143.045C143.001 20.5915 142.778 21.2084 142.382 21.5635C142.088 21.8298 141.497 21.9629 140.607 21.9629H137.198V15.8205H141.457C142.226 15.8205 142.765 15.8826 143.072 15.998C143.455 16.1534 143.739 16.3886 143.935 16.6993C144.135 17.0055 144.304 17.5603 144.469 18.3813H144.914L144.741 14.9817H132.783V15.4078H133.335C133.976 15.4078 134.43 15.5587 134.706 15.8649C134.906 16.0957 135 16.7037 135 17.689V27.7814C135 28.5358 134.955 29.0374 134.87 29.2815C134.777 29.5211 134.617 29.7075 134.372 29.8273C134.043 30.0049 133.696 30.0936 133.335 30.0936H132.783V30.5108H144.741L146.08 26.6141Z" fill="#20B63B"/>
<path d="M165.193 16.9434C165.473 16.5307 165.812 16.2511 166.212 16.1046C166.515 15.9981 167.031 15.9449 167.756 15.9449H169.625V27.8214C169.625 28.6913 169.541 29.246 169.372 29.4901C169.1 29.8896 168.637 30.0893 167.979 30.0893H167.431V30.5109H174.013V30.0893H173.47C172.869 30.0893 172.424 29.9295 172.131 29.6055C171.93 29.3703 171.824 28.7756 171.824 27.8214V15.9449H174.013C174.654 15.9449 175.165 16.0514 175.566 16.26C175.958 16.473 176.269 16.797 176.505 17.2364C176.656 17.516 176.768 17.9731 176.848 18.6166H177.284L177.11 14.9729H164.445L164.259 18.6166H164.695C164.744 17.911 164.913 17.3562 165.193 16.9434Z" fill="#20B63B"/>
<path d="M66.4652 15.8561C66.7322 15.5809 67.3552 15.43 68.3209 15.399V14.9729H52.1184V15.399C53.0885 15.43 53.7071 15.5809 53.9741 15.8561C54.2455 16.1313 54.379 16.7792 54.379 17.8V27.6749C54.379 28.7001 54.2411 29.3481 53.9741 29.6233C53.7071 29.8984 53.0885 30.0538 52.1184 30.0849V30.5109H58.8557V30.0893C57.8767 30.0582 57.2582 29.9073 56.9912 29.6277C56.7242 29.3526 56.5951 28.7046 56.5951 27.6794V15.8206H63.8486V27.6794C63.8486 28.709 63.7151 29.3659 63.4437 29.6322C63.1767 29.9029 62.5626 30.0582 61.6014 30.0893V30.5109H68.3253V30.0893C67.3552 30.0582 66.7322 29.9073 66.4697 29.6277C66.2027 29.3526 66.0647 28.7046 66.0647 27.6794V17.8C66.0603 16.7792 66.1982 16.1313 66.4652 15.8561Z" fill="#20B63B"/>
<path d="M107.908 30.1027C107.281 30.0894 106.845 30.0273 106.591 29.9208C106.342 29.8098 106.186 29.6634 106.119 29.477C106.053 29.2861 106.013 28.9133 106.008 28.3585L112.073 20.6406V28.0923C112.073 28.9444 111.962 29.4858 111.735 29.7166C111.508 29.9474 110.983 30.0805 110.155 30.1072V30.4622H115.816V30.1072C115.006 30.0805 114.49 29.9518 114.258 29.7211C114.036 29.4947 113.92 28.9533 113.92 28.0923V19.8373C113.92 18.9807 114.036 18.4348 114.258 18.2085C114.485 17.9777 115.006 17.8534 115.816 17.8268V17.4717H110.155V17.8268C110.921 17.8268 111.437 17.9289 111.695 18.1374C111.949 18.3416 112.073 18.8342 112.073 19.6154L106.008 27.3156V19.8328C106.008 18.9763 106.119 18.4304 106.346 18.204C106.569 17.9732 107.089 17.849 107.908 17.8223V17.4673H102.266V17.8223C103.08 17.8445 103.592 17.9732 103.814 18.204C104.041 18.4348 104.157 18.9807 104.157 19.8328V28.0878C104.157 28.9488 104.041 29.4858 103.814 29.7166C103.592 29.9518 103.076 30.0761 102.266 30.1027V30.4578H107.908V30.1027Z" fill="#20B63B"/>
<path d="M91.3273 27.2002H90.9446C90.5263 27.9946 90.1169 28.5938 89.7209 28.9932C89.4094 29.295 89.089 29.4947 88.7552 29.5924C88.4215 29.6989 87.883 29.7477 87.1443 29.7477H84.9282C84.5678 29.7477 84.323 29.7122 84.1939 29.6367C84.0649 29.5657 83.9759 29.4636 83.927 29.3438C83.878 29.2195 83.8513 28.8645 83.8513 28.292V24.0047H86.726C87.2734 24.0047 87.6739 24.0713 87.9409 24.2C88.2034 24.3242 88.3948 24.5018 88.506 24.7281C88.595 24.9056 88.6885 25.3095 88.773 25.9442H89.1335V21.4217H88.773C88.733 22.1673 88.5505 22.6821 88.2168 22.975C87.9676 23.197 87.4692 23.3123 86.726 23.3123H83.8513V18.1774H87.4425C88.0877 18.1774 88.5416 18.2262 88.7997 18.3194C89.1246 18.4526 89.3604 18.6478 89.525 18.9052C89.6897 19.1582 89.8366 19.6287 89.9745 20.3121H90.3527L90.2059 17.4673H80.1311V17.8223H80.5939C81.1324 17.8223 81.5195 17.9466 81.7464 18.204C81.9111 18.3993 81.9956 18.9052 81.9956 19.7307V28.1721C81.9956 28.8024 81.9601 29.2195 81.8889 29.4281C81.8177 29.6279 81.6753 29.7832 81.4661 29.8853C81.1947 30.0317 80.901 30.1072 80.5939 30.1072H80.1311V30.4622H90.2059L91.3273 27.2002Z" fill="#20B63B"/>
<path d="M96.7298 30.7549C97.9669 30.7549 99.0037 30.4132 99.8403 29.7386C100.677 29.0595 101.095 28.1896 101.095 27.1156C101.095 26.2457 100.819 25.4912 100.272 24.8477C99.7291 24.2042 99.0082 23.8092 98.1271 23.645C98.9459 23.3831 99.6 22.9704 100.09 22.4156C100.588 21.8564 100.837 21.1862 100.837 20.4007C100.837 19.5352 100.508 18.7852 99.8537 18.1372C99.1995 17.4892 98.3273 17.1697 97.2504 17.1697C96.4539 17.1697 95.6885 17.3028 94.9676 17.5647C94.5003 17.7333 94.2022 17.8221 94.0598 17.8221C93.686 17.8221 93.4501 17.6091 93.3433 17.1874H93.0051V20.9643H93.3389C93.5035 20.0856 93.8417 19.371 94.3624 18.8296C94.8786 18.2925 95.5995 18.0218 96.5117 18.0218C97.2549 18.0218 97.8423 18.2482 98.265 18.692C98.6967 19.1402 98.9103 19.7172 98.9103 20.4184C98.9103 21.0264 98.759 21.559 98.4475 22.0162C98.1404 22.4777 97.7399 22.8106 97.246 23.0147C96.752 23.2145 96.0133 23.3165 95.0388 23.3165V23.9512C96.4183 23.9512 97.4106 24.2441 98.0069 24.8211C98.6077 25.4025 98.9058 26.117 98.9058 26.9603C98.9058 27.7769 98.67 28.4648 98.1938 29.0329C97.7266 29.5965 97.0591 29.8806 96.2047 29.8806C95.4882 29.8806 94.8163 29.6897 94.1933 29.3036C93.5703 28.9175 93.0897 28.4648 92.7693 27.9322L92.4355 28.1453C93.4546 29.885 94.883 30.7549 96.7298 30.7549Z" fill="#20B63B"/>
<path d="M74.6712 30.1027H74.1684C73.6744 30.1027 73.3051 29.9607 73.0648 29.6811C72.8823 29.4858 72.7889 28.9754 72.7889 28.1588V24.3731C73.2072 24.4663 73.5988 24.5284 73.9637 24.5728C74.3286 24.6172 74.6712 24.6438 74.9827 24.6438C76.2732 24.6438 77.2611 24.3065 77.9687 23.6452C78.6673 22.9795 79.0233 22.1185 79.0233 21.0578C79.0233 20.2766 78.7919 19.6065 78.3247 19.0384C77.8619 18.4703 77.2967 18.062 76.6159 17.8268C75.9439 17.5871 75.0228 17.4673 73.8569 17.4673H69.0642V17.8223H69.5537C70.0477 17.8223 70.4215 17.9644 70.6707 18.244C70.8442 18.4437 70.9332 18.9496 70.9332 19.7618V28.1588C70.9332 28.8956 70.8665 29.3704 70.7374 29.5702C70.4971 29.9252 70.1055 30.1072 69.5537 30.1072H69.0642V30.4622H74.6668V30.1027H74.6712ZM72.7889 18.4215C73.3051 18.3017 73.7234 18.2395 74.0482 18.2395C74.5911 18.2395 75.0717 18.3594 75.4945 18.599C75.9172 18.8387 76.2465 19.1982 76.4824 19.6819C76.7093 20.1613 76.8295 20.685 76.8295 21.2486C76.8295 22.0652 76.5847 22.7265 76.0997 23.2413C75.6102 23.7606 75.0361 24.0136 74.3686 24.0136C74.1773 24.0136 73.9592 23.9958 73.6967 23.9692C73.4252 23.9381 73.1271 23.8893 72.7889 23.8227V18.4215Z" fill="#20B63B"/>
<path d="M177.462 36.5557H51.8516V37.6253H177.462V36.5557Z" fill="#20B63B"/>
<path d="M63.448 41.1492C62.1575 41.1492 61.0227 42.0546 61.0227 43.599C61.0227 45.1435 62.1308 46.0489 63.4346 46.0489C64.872 46.0489 65.8688 45.0414 65.8688 43.599C65.8688 42.0546 64.7474 41.1492 63.448 41.1492ZM63.448 45.3033C62.5491 45.3033 61.8237 44.6997 61.8237 43.599C61.8237 42.5028 62.558 41.8859 63.4569 41.8859C64.3469 41.8859 65.0811 42.5161 65.0811 43.599C65.0811 44.6997 64.338 45.3033 63.448 45.3033Z" fill="#20B63B"/>
<path d="M69.2063 43.6657L67.2705 41.2158H66.9768V45.9647H67.7734V43L69.1529 44.753H69.2641L70.6347 43V45.9647H71.4313V41.2158H71.1376L69.2063 43.6657Z" fill="#20B63B"/>
<path d="M133.02 40.2216C132.695 40.2172 132.468 40.0796 132.428 39.7822L131.876 39.8355C131.925 40.4524 132.352 40.8563 133.024 40.8563C133.732 40.8563 134.092 40.4391 134.145 39.8355C133.994 39.8133 133.785 39.7955 133.634 39.7822C133.585 40.1062 133.331 40.2216 133.02 40.2216Z" fill="#20B63B"/>
<path d="M54.2367 45.2945C53.2621 45.2945 52.6169 44.54 52.6169 43.5991C52.6169 42.5872 53.2621 41.8816 54.2367 41.8816C54.8641 41.8905 55.3937 42.1612 55.6295 42.747H56.3905C56.1368 41.6774 55.1756 41.1626 54.2411 41.1626C52.9417 41.1626 51.8203 42.0635 51.8203 43.5947C51.8203 45.1214 52.9417 46.0046 54.2322 46.0046C55.1979 46.0046 56.1769 45.4987 56.4127 44.3403H55.6429C55.4382 44.975 54.8864 45.2945 54.2367 45.2945Z" fill="#20B63B"/>
<path d="M56.9778 41.9258H58.3573V45.9645H59.1316V41.9258H60.5111V41.229H56.9778V41.9258Z" fill="#20B63B"/>
<path d="M150.677 43.6657L148.741 41.2158H148.448V45.9647H149.244V43L150.624 44.753H150.73L152.105 43V45.9647H152.902V41.2158H152.608L150.677 43.6657Z" fill="#20B63B"/>
<path d="M141.11 42.3165C141.252 41.8283 141.421 41.7395 141.897 41.775V41.2336C140.918 41.0516 140.549 41.4777 140.38 42.0857C140.251 42.5783 140.113 43.0621 139.837 43.2085C139.628 43.3151 139.267 43.3239 138.907 43.3239V41.2247H138.11V45.9602H138.907V43.963C139.138 43.963 139.592 43.963 139.797 43.8876L141.159 45.9602H142.058V45.8448L140.496 43.5769C140.812 43.2929 140.967 42.8313 141.11 42.3165Z" fill="#20B63B"/>
<path d="M144.919 41.1492C143.628 41.1492 142.493 42.0546 142.493 43.599C142.493 45.1435 143.601 46.0489 144.905 46.0489C146.338 46.0489 147.339 45.0414 147.339 43.599C147.339 42.0546 146.218 41.1492 144.919 41.1492ZM144.919 45.3033C144.02 45.3033 143.294 44.6997 143.294 43.599C143.294 42.5028 144.029 41.8859 144.928 41.8859C145.818 41.8859 146.552 42.5161 146.552 43.599C146.552 44.6997 145.809 45.3033 144.919 45.3033Z" fill="#20B63B"/>
<path d="M126.345 44.398L126.398 42.9511V41.2291H125.61V45.9647H125.882L128.792 42.747L128.739 44.2426V45.9558H129.517V41.2158H129.233L126.345 44.398Z" fill="#20B63B"/>
<path d="M154.29 45.9645H155.078V41.9435H157.245V45.9645H158.042V41.229H154.29V45.9645Z" fill="#20B63B"/>
<path d="M131.64 44.398L131.693 42.9511V41.2291H130.906V45.9647H131.177L134.087 42.7425L134.034 44.2471V45.9647H134.813V41.2158H134.528L131.64 44.398Z" fill="#20B63B"/>
<path d="M159.777 44.6775C159.715 45.2189 159.581 45.4497 158.976 45.3654L158.963 45.9468C160.093 46.111 160.467 45.7959 160.569 44.7041L160.854 41.9302H162.412V45.9645H163.208V41.229H160.155L159.777 44.6775Z" fill="#20B63B"/>
<path d="M74.4352 41.1936L72.2324 45.8625V45.9646H73.0601L73.5229 44.9838H75.699L76.1662 45.9646H76.9895V45.8625L74.8001 41.1936H74.4352ZM73.7855 44.3225L74.6221 42.4274L75.4498 44.3225H73.7855Z" fill="#20B63B"/>
<path d="M123.745 42.3165C123.888 41.8283 124.057 41.7395 124.533 41.775V41.2336C123.554 41.0516 123.185 41.4777 123.016 42.0857C122.887 42.5783 122.749 43.0621 122.473 43.2085C122.264 43.3151 121.903 43.3239 121.543 43.3239V41.2247H120.746V45.9602H121.543V43.963C121.774 43.963 122.228 43.963 122.433 43.8876L123.794 45.9602H124.693V45.8448L123.131 43.5769C123.447 43.2929 123.603 42.8313 123.745 42.3165Z" fill="#20B63B"/>
<path d="M176.923 44.3492C176.714 44.9794 176.162 45.2945 175.508 45.2945C174.534 45.2945 173.888 44.54 173.888 43.5991C173.888 42.5872 174.534 41.8816 175.508 41.8816C176.136 41.8905 176.665 42.1612 176.901 42.747H177.662C177.408 41.6774 176.447 41.1626 175.513 41.1626C174.213 41.1626 173.092 42.0635 173.092 43.5947C173.092 45.1214 174.213 46.0046 175.504 46.0046C176.469 46.0046 177.448 45.4987 177.684 44.3403H176.923V44.3492Z" fill="#20B63B"/>
<path d="M165.384 43.8653H167.369V43.1729H165.384V41.9169H167.485V41.229H164.588V45.9645H167.525V45.25H165.384V43.8653Z" fill="#20B63B"/>
<path d="M171.717 42.3165C171.859 41.8283 172.028 41.7395 172.504 41.775V41.2336C171.525 41.0516 171.156 41.4777 170.987 42.0857C170.858 42.5783 170.72 43.0621 170.444 43.2085C170.235 43.3151 169.875 43.3239 169.514 43.3239V41.2247H168.718V45.9602H169.514V43.963C169.745 43.963 170.199 43.963 170.404 43.8876L171.766 45.9602H172.66V45.8448L171.098 43.5769C171.414 43.2929 171.57 42.8313 171.717 42.3165Z" fill="#20B63B"/>
<path d="M83.4509 41.1492C82.1604 41.1492 81.0256 42.0546 81.0256 43.599C81.0256 45.1435 82.1337 46.0489 83.4375 46.0489C84.8749 46.0489 85.8717 45.0414 85.8717 43.599C85.8717 42.0546 84.7503 41.1492 83.4509 41.1492ZM83.4509 45.3033C82.552 45.3033 81.8266 44.6997 81.8266 43.599C81.8266 42.5028 82.5609 41.8859 83.4598 41.8859C84.3498 41.8859 85.084 42.5161 85.084 43.599C85.084 44.6997 84.3453 45.3033 83.4509 45.3033Z" fill="#20B63B"/>
<path d="M117.511 45.2945C116.537 45.2945 115.891 44.54 115.891 43.5991C115.891 42.5872 116.537 41.8816 117.511 41.8816C118.139 41.8905 118.668 42.1612 118.904 42.747H119.665C119.411 41.6774 118.446 41.1626 117.516 41.1626C116.216 41.1626 115.095 42.0635 115.095 43.5947C115.095 45.1214 116.216 46.0046 117.507 46.0046C118.472 46.0046 119.451 45.4987 119.687 44.3403H118.917C118.713 44.975 118.161 45.2945 117.511 45.2945Z" fill="#20B63B"/>
<path d="M87.2108 44.6775C87.1485 45.2189 87.015 45.4497 86.4098 45.3654L86.3965 45.9468C87.5268 46.111 87.9006 45.7959 88.0029 44.7041L88.2877 41.9302H89.8452V45.9645H90.6418V41.229H87.5891L87.2108 44.6775Z" fill="#20B63B"/>
<path d="M76.9805 41.9258H78.36V45.9645H79.1343V41.9258H80.5138V41.229H76.9805V41.9258Z" fill="#20B63B"/>
<path d="M94.1753 41.1492C92.8848 41.1492 91.75 42.0546 91.75 43.599C91.75 45.1435 92.8581 46.0489 94.1619 46.0489C95.5948 46.0489 96.5961 45.0414 96.5961 43.599C96.5961 42.0546 95.4747 41.1492 94.1753 41.1492ZM94.1753 45.3033C93.2764 45.3033 92.551 44.6997 92.551 43.599C92.551 42.5028 93.2853 41.8859 94.1842 41.8859C95.0742 41.8859 95.8084 42.5161 95.8084 43.599C95.8084 44.6997 95.0653 45.3033 94.1753 45.3033Z" fill="#20B63B"/>
<path d="M109.128 43.4971C107.761 43.7678 107.214 43.3905 107.214 41.9836V41.238H106.413V41.9836C106.413 43.932 107.303 44.5489 109.128 44.2338V45.9647H109.911V41.238H109.128V43.4971Z" fill="#20B63B"/>
<path d="M97.7041 45.9645H98.5007V41.9258H100.539V41.229H97.7041V45.9645Z" fill="#20B63B"/>
<path d="M112.1 43.8653H114.085V43.1729H112.1V41.9169H114.201V41.229H111.304V45.9645H114.241V45.25H112.1V43.8653Z" fill="#20B63B"/>
<path d="M102.172 44.398L102.225 42.9511V41.2291H101.438V45.9647H101.709L104.619 42.747L104.566 44.2426V45.9558H105.345V41.2158H105.06L102.172 44.398Z" fill="#20B63B"/>
<path d="M46.663 11.9905C46.6096 10.9742 46.2402 10.5348 45.2434 10.3307C42.836 9.83802 40.4864 9.13236 38.1902 8.26248C33.2685 6.38957 28.6494 3.94414 24.3329 0.930626C23.7232 0.504562 23.1358 0.522315 22.5173 0.957255C21.8854 1.40107 21.2624 1.8582 20.6127 2.27539C14.6764 6.10109 8.33069 8.96371 1.37534 10.3972C0.707839 10.5348 0.253939 11.0896 0.227239 11.7686C0.196089 12.6962 0.164939 13.6238 0.133789 14.5514C0.156039 16.8991 0.342939 19.2292 0.712289 21.5459C1.33529 25.4426 2.46559 29.1884 4.08984 32.7878C6.67974 38.513 10.2887 43.5237 14.7387 47.9486C17.0794 50.2742 19.5936 52.3912 22.3393 54.233C23.0824 54.7301 23.7499 54.7523 24.502 54.2463C26.2686 53.0569 27.9507 51.7654 29.5483 50.3585C34.8037 45.7339 39.098 40.3593 42.1818 34.0571C44.5581 29.2017 46.0088 24.0845 46.525 18.7099C46.7475 16.4731 46.7831 14.2318 46.663 11.9905Z" fill="#20B63B"/>
<path d="M35.2175 26.3658C35.4 26.1794 35.8227 26.0773 36.4858 26.0551V25.7622H25.4231V26.0551C26.0861 26.0773 26.5089 26.1794 26.6913 26.3658C26.8782 26.5522 26.9672 26.996 26.9672 27.6928V34.4344C26.9672 35.1356 26.8738 35.575 26.6913 35.7614C26.5089 35.9522 26.0861 36.0543 25.4231 36.0765V36.365H30.0199V36.0765C29.3524 36.0543 28.9297 35.9522 28.7472 35.7614C28.5692 35.575 28.4802 35.1356 28.4802 34.4344V26.3392H33.4331V34.4344C33.4331 35.1356 33.3396 35.5839 33.1572 35.7658C32.9747 35.9522 32.5564 36.0543 31.8978 36.0765V36.365H36.4858V36.0765C35.8227 36.0543 35.4 35.9522 35.2175 35.7614C35.0351 35.575 34.9416 35.1312 34.9416 34.4344V27.6928C34.9416 26.9916 35.0351 26.5522 35.2175 26.3658Z" fill="white"/>
<path d="M17.9963 26.2282C18.4814 23.4943 19.8431 18.9629 24.0839 17.1433C28.3248 15.3236 32.4766 17.8667 32.4766 17.8667C30.394 17.3208 26.3935 16.371 24.0172 18.0664C21.227 20.0591 20.3192 23.3789 20.3593 26.49C20.4705 25.7355 20.9111 24.5594 21.1469 23.8671C21.543 22.6865 22.3484 21.6391 23.1761 20.8358C24.5957 19.46 26.3712 18.9496 28.4138 18.9496C31.0971 18.9496 33.5046 20.3432 34.9686 22.5623V14.3428H11.8865V36.2673H17.5825C17.578 34.0704 17.6136 28.4073 17.9963 26.2282Z" fill="white"/>
</svg>
