<svg width="52" height="59" viewBox="0 0 52 59" fill="none" xmlns="http://www.w3.org/2000/svg">
<path d="M51.9243 12.4236C51.8647 11.313 51.4525 10.8329 50.3402 10.6098C47.6536 10.0715 45.0315 9.30046 42.4691 8.34995C36.9767 6.30344 31.822 3.63134 27.005 0.338491C26.3247 -0.127066 25.6692 -0.107668 24.9789 0.367588C24.2737 0.852543 23.5785 1.35205 22.8535 1.8079C16.2288 5.98822 9.14734 9.11618 1.38551 10.6826C0.640612 10.8329 0.134082 11.4391 0.104286 12.1811C0.0695237 13.1946 0.0347619 14.2082 0 15.2218C0.0248299 17.7872 0.233401 20.3332 0.645578 22.8647C1.34082 27.1226 2.60217 31.2156 4.41476 35.1486C7.30496 41.4045 11.3324 46.8796 16.2984 51.7146C18.9105 54.2558 21.7162 56.569 24.7803 58.5816C25.6096 59.1247 26.3545 59.149 27.1937 58.5961C29.1652 57.2965 31.0424 55.8853 32.8251 54.3479C38.69 49.2947 43.4821 43.4219 46.9236 36.5355C49.5754 31.2301 51.1943 25.6386 51.7704 19.7658C52.0187 17.3216 52.0584 14.8726 51.9243 12.4236Z" fill="#20B63B"/>
<path d="M39.1522 28.1283C39.3558 27.9246 39.8275 27.8131 40.5675 27.7888V27.4688H28.222V27.7888C28.962 27.8131 29.4337 27.9246 29.6374 28.1283C29.8459 28.332 29.9452 28.8169 29.9452 29.5783V36.9448C29.9452 37.711 29.841 38.1911 29.6374 38.3948C29.4337 38.6033 28.962 38.7149 28.222 38.7391V39.0543H33.3519V38.7391C32.607 38.7149 32.1352 38.6033 31.9316 38.3948C31.733 38.1911 31.6337 37.711 31.6337 36.9448V28.0992H37.1608V36.9448C37.1608 37.711 37.0565 38.2008 36.8529 38.3996C36.6493 38.6033 36.1825 38.7149 35.4476 38.7391V39.0543H40.5675V38.7391C39.8275 38.7149 39.3558 38.6033 39.1522 38.3948C38.9486 38.1911 38.8443 37.7062 38.8443 36.9448V29.5783C38.8443 28.8121 38.9486 28.332 39.1522 28.1283Z" fill="white"/>
<path d="M19.93 27.9832C20.4713 24.9959 21.9909 20.0445 26.7235 18.0562C31.456 16.0678 36.0893 18.8466 36.0893 18.8466C33.7652 18.2501 29.3008 17.2123 26.649 19.0649C23.5353 21.2423 22.5222 24.8698 22.5669 28.2693C22.6911 27.4449 23.1827 26.1598 23.4459 25.4032C23.8879 24.1132 24.7867 22.9688 25.7104 22.091C27.2945 20.5876 29.276 20.0299 31.5554 20.0299C34.5498 20.0299 37.2364 21.5527 38.8702 23.9775V14.9961H13.1117V38.9529H19.4682C19.4632 36.5523 19.5029 30.3643 19.93 27.9832Z" fill="white"/>
</svg>
