<svg width="18" height="18" viewBox="0 0 18 18" fill="none" xmlns="http://www.w3.org/2000/svg">
<rect x="0.4" y="0.4" width="17.2" height="17.2" rx="3.6" stroke="#868C94" stroke-width="0.8"/>
<path d="M9.65351 4C10.6155 4 11.4137 4.32476 12.0482 4.97429C12.6827 5.62381 13 6.43571 13 7.41C13 8.38429 12.6827 9.19619 12.0482 9.84571C11.4137 10.4848 10.6155 10.8043 9.65351 10.8043H6.8136V15H6V4H9.65351ZM9.65351 10.0186C10.3904 10.0186 10.9942 9.77238 11.4649 9.28C11.9459 8.78762 12.1864 8.16429 12.1864 7.41C12.1864 6.64524 11.9459 6.01667 11.4649 5.52429C10.9942 5.0319 10.3904 4.78571 9.65351 4.78571H6.8136V10.0186H9.65351Z" fill="#868C94"/>
</svg>
