<svg width="35" height="35" viewBox="0 0 35 35" fill="none" xmlns="http://www.w3.org/2000/svg">
<rect width="35" height="35" rx="12" fill="#20B63B"/>
<path fill-rule="evenodd" clip-rule="evenodd" d="M26.712 23.1452C27.416 23.1452 27.9439 22.9678 28.296 22.7903C28.5022 22.5826 28.648 22.3138 28.7687 22.0913C28.8542 21.9339 28.9271 21.7995 29 21.726C29 21.3711 29 21.0164 28.8239 20.6614C28.296 19.7743 26.888 19.4194 24.776 19.4194C24.4436 19.4194 24.1112 19.459 23.7603 19.5008C23.368 19.5473 22.9525 19.5969 22.488 19.5969C22.0185 19.3602 21.7056 19.1236 21.3926 18.887C21.2363 18.7687 21.0799 18.6506 20.904 18.5323C19.848 17.4677 18.792 15.871 18.088 13.9193V13.7421C18.792 11.4355 19.3201 8.59673 18.088 7.35494C17.736 7.17747 17.384 7 17.032 7H16.68C15.976 7 15.448 7.70963 15.272 8.41951C14.568 10.9033 14.92 12.1451 15.624 14.2743C15.5495 14.4995 15.4751 14.7282 15.3996 14.9599C14.9401 16.3715 14.4439 17.8954 13.688 19.4194C13.3653 19.9887 13.0796 20.5206 12.8139 21.0154C12.5 21.6 12.214 22.1324 11.928 22.6128C11.5163 22.8205 11.1648 23.0282 10.8734 23.2002C10.6666 23.3222 10.4902 23.4264 10.344 23.4999C8.23201 24.742 7.176 26.3387 7 27.2258C7 27.5807 7 27.7582 7.176 28.1129V28.2904L8.056 28.8225C8.23201 29 8.40801 29 8.76 29C10.168 29 11.928 27.2258 14.04 23.4999C14.1412 23.398 14.1842 23.3546 14.2359 23.3363C14.2742 23.3227 14.3172 23.3227 14.392 23.3227C16.152 22.6128 18.44 22.2581 21.432 21.9032C23.192 22.7903 25.304 23.1452 26.712 23.1452ZM16.8403 11.2105C16.7905 11.3798 16.7352 11.5677 16.68 11.7904C16.328 10.1937 16.328 8.95167 16.68 7.8871C16.856 7.8871 16.856 7.70963 16.856 7.70963L17.032 7.8871V8.06457C17.208 8.24204 17.208 8.95167 17.032 9.83877V10.1937C17.032 10.5588 16.9491 10.8405 16.8403 11.2105ZM10.52 24.5645C10.696 24.3873 11.048 24.2098 11.4 24.0323C10.344 26.1615 9.28801 27.2258 8.23201 27.4033C8.40801 26.8711 9.28801 25.6291 10.52 24.5645ZM24.248 20.6614C26.712 20.6614 27.416 21.1936 27.592 21.371C27.592 21.5485 27.768 21.5485 27.768 21.5485V21.726H27.24C26.36 21.726 25.128 21.371 23.896 20.8389V20.6614H24.248ZM15.5734 19.0644C16.1028 17.8944 16.5843 16.8299 16.856 15.871C17.56 17.4677 18.616 18.8872 19.496 19.9518C19.672 20.129 19.8479 20.3065 20.2 20.484C18.792 20.6614 16.68 21.1936 14.392 22.0807H14.04C14.216 21.726 14.392 21.4156 14.568 21.1052C14.744 20.7946 14.92 20.484 15.096 20.129C15.2565 19.7649 15.4171 19.41 15.5734 19.0644Z" fill="white"/>
</svg>
