<svg width="18" height="18" viewBox="0 0 18 18" fill="none" xmlns="http://www.w3.org/2000/svg">
<path d="M13.05 16.5001C9.98797 16.4961 7.05248 15.278 4.8873 13.1128C2.72211 10.9476 1.50397 8.01212 1.5 4.95009C1.5 4.03509 1.86348 3.15757 2.51048 2.51057C3.15748 1.86357 4.035 1.50009 4.95 1.50009C5.14376 1.49861 5.33719 1.51619 5.5275 1.55259C5.71148 1.57981 5.89235 1.62503 6.0675 1.68759C6.19069 1.73081 6.30046 1.80544 6.38596 1.90409C6.47146 2.00274 6.52973 2.12201 6.555 2.25009L7.5825 6.75009C7.61019 6.87223 7.60686 6.99937 7.5728 7.1199C7.53874 7.24043 7.47503 7.3505 7.3875 7.44009C7.29 7.54509 7.2825 7.55259 6.36 8.03259C7.09874 9.65323 8.3949 10.9547 10.0125 11.7001C10.5 10.7701 10.5075 10.7626 10.6125 10.6651C10.7021 10.5776 10.8122 10.5139 10.9327 10.4798C11.0532 10.4457 11.1804 10.4424 11.3025 10.4701L15.8025 11.4976C15.9265 11.5264 16.0411 11.5862 16.1356 11.6715C16.23 11.7568 16.3012 11.8647 16.3425 11.9851C16.4058 12.1631 16.4535 12.3463 16.485 12.5326C16.5152 12.7211 16.5302 12.9117 16.53 13.1026C16.5162 14.0137 16.1425 14.8823 15.4905 15.5188C14.8385 16.1554 13.9612 16.5081 13.05 16.5001ZM4.95 3.00009C4.43344 3.00206 3.93859 3.20814 3.57332 3.57341C3.20806 3.93868 3.00198 4.43352 3 4.95009C3.00199 7.6149 4.06146 10.17 5.94577 12.0543C7.83008 13.9386 10.3852 14.9981 13.05 15.0001C13.5666 14.9981 14.0614 14.792 14.4267 14.4268C14.7919 14.0615 14.998 13.5667 15 13.0501V12.8026L11.52 12.0001L11.3025 12.4126C10.965 13.0651 10.7175 13.5376 10.0875 13.2826C8.84466 12.8377 7.71652 12.1216 6.78505 11.1862C5.85358 10.2509 5.14217 9.11977 4.7025 7.87509C4.4325 7.29009 4.9425 7.02009 5.5875 6.68259L6 6.48009L5.1975 3.00009H4.95Z" fill="#20B63B"/>
</svg>
