<svg width="120" height="1870" viewBox="0 0 120 1870" fill="none" xmlns="http://www.w3.org/2000/svg">
<path d="M29.3682 70.9052C24.9312 80.0967 17.4927 84.6924 7.05278 84.6924C-1.16867 84.6924 -7.88939 81.8036 -13.1094 76.0262C-18.1988 70.38 -20.7436 62.3047 -20.7436 51.8002L-20.7436 4.30468e-06L77.1309 0V47.861C77.1309 58.2342 74.5862 66.2439 69.4967 71.89C64.4072 77.6675 57.7518 80.5562 49.5303 80.5562C40.9174 80.5562 34.1966 77.3392 29.3682 70.9052ZM56.3815 45.4975V23.832H38.7641V45.4975C38.7641 52.7194 41.7003 56.3303 47.5728 56.3303C53.4453 56.3303 56.3815 52.7194 56.3815 45.4975ZM0.593063 48.8458C0.593063 56.199 3.72505 59.8755 9.98901 59.8755C12.7295 59.8755 14.8827 58.8907 16.4487 56.9212C18.0147 54.9516 18.7977 52.2598 18.7977 48.8458V23.832H0.593063V48.8458Z" fill="#ECF6F8"/>
<path d="M77.1309 175.44V200.847L-20.7436 200.847L-20.7436 175.44H-9.19438C-18.7208 167.824 -23.4841 157.122 -23.4841 143.335C-23.4841 130.205 -18.5251 118.912 -8.60714 109.458C1.44131 100.136 13.7082 95.4743 28.1937 95.4743C42.6791 95.4743 54.8808 100.136 64.7987 109.458C74.8472 118.912 79.8714 130.205 79.8714 143.335C79.8714 157.122 75.1082 167.824 65.5817 175.44H77.1309ZM8.22727 128.563C3.1378 133.684 0.593071 140.184 0.593071 148.062C0.593071 155.941 3.1378 162.44 8.22727 167.561C13.4473 172.814 20.1027 175.44 28.1937 175.44C36.2846 175.44 42.8748 172.814 47.9643 167.561C53.1843 162.44 55.7943 155.941 55.7943 148.062C55.7943 140.184 53.1843 133.684 47.9643 128.563C42.8748 123.443 36.2846 120.882 28.1937 120.882C20.1027 120.882 13.4473 123.443 8.22727 128.563Z" fill="#ECF6F8"/>
<path d="M77.1309 339.305V364.713H-20.7436L-20.7436 223.887H77.1309V249.295L2.94206 249.295V281.596H77.1309V307.004L2.94206 307.004V339.305H77.1309Z" fill="#ECF6F8"/>
<path d="M77.1309 462.8V488.207H-20.7436V462.8H-9.19436C-18.7208 455.184 -23.484 444.483 -23.484 430.695C-23.484 417.565 -18.5251 406.273 -8.60712 396.819C1.44133 387.496 13.7083 382.834 28.1937 382.834C42.6791 382.834 54.8808 387.496 64.7987 396.818C74.8472 406.273 79.8714 417.565 79.8714 430.695C79.8714 444.483 75.1082 455.184 65.5817 462.8H77.1309ZM8.22729 415.924C3.13782 421.044 0.593082 427.544 0.593086 435.422C0.593086 443.301 3.13782 449.8 8.22729 454.921C13.4473 460.174 20.1027 462.8 28.1937 462.8C36.2846 462.8 42.8749 460.174 47.9643 454.921C53.1843 449.8 55.7943 443.301 55.7943 435.422C55.7943 427.544 53.1843 421.044 47.9643 415.924C42.8749 410.803 36.2846 408.242 28.1937 408.242C20.1027 408.242 13.4473 410.803 8.22729 415.924Z" fill="#ECF6F8"/>
<path d="M77.1309 625.089V650.497H-20.7435V625.089H16.4488V585.895H-20.7435L-20.7435 560.487H77.1309V585.895H40.1344V625.089L77.1309 625.089Z" fill="#ECF6F8"/>
<path d="M-8.60711 757.681C-18.5251 747.571 -23.484 735.228 -23.484 720.653C-23.484 706.078 -18.5251 693.735 -8.60711 683.625C1.44134 673.645 13.7083 668.656 28.1937 668.656C42.6791 668.656 54.8808 673.645 64.7988 683.625C74.8472 693.735 79.8714 706.078 79.8714 720.653C79.8714 735.228 74.8472 747.571 64.7988 757.681C54.8808 767.792 42.6791 772.847 28.1937 772.847C13.7083 772.847 1.44134 767.792 -8.60711 757.681ZM8.81455 701.548C3.72507 706.669 1.18034 713.037 1.18034 720.653C1.18034 728.269 3.72507 734.637 8.81455 739.758C13.904 744.879 20.3637 747.439 28.1937 747.439C36.0237 747.439 42.4834 744.879 47.5728 739.758C52.6623 734.637 55.207 728.269 55.207 720.653C55.207 713.037 52.6623 706.669 47.5728 701.548C42.4834 696.558 36.0237 694.063 28.1937 694.063C20.3637 694.063 13.904 696.558 8.81455 701.548Z" fill="#ECF6F8"/>
<path d="M29.3682 861.626C24.9312 870.818 17.4928 875.413 7.05282 875.413C-1.16864 875.413 -7.88935 872.525 -13.1093 866.747C-18.1988 861.101 -20.7435 853.026 -20.7435 842.521L-20.7435 790.721H77.1309V838.582C77.1309 848.955 74.5862 856.965 69.4967 862.611C64.4073 868.389 57.7518 871.277 49.5303 871.277C40.9174 871.277 34.1967 868.06 29.3682 861.626ZM56.3816 836.219V814.553H38.7641V836.219C38.7641 843.44 41.7004 847.051 47.5728 847.051C53.4453 847.051 56.3816 843.44 56.3816 836.219ZM0.593098 839.567C0.593098 846.92 3.72508 850.597 9.98904 850.597C12.7295 850.597 14.8828 849.612 16.4488 847.642C18.0148 845.673 18.7978 842.981 18.7978 839.567V814.553H0.593098V839.567Z" fill="#ECF6F8"/>
<path d="M77.1309 966.161V991.568H-20.7435V966.161H-9.19434C-18.7208 958.545 -23.484 947.844 -23.484 934.056C-23.484 920.926 -18.525 909.633 -8.6071 900.179C1.44135 890.857 13.7083 886.195 28.1937 886.195C42.6791 886.195 54.8808 890.857 64.7988 900.179C74.8472 909.633 79.8714 920.926 79.8714 934.056C79.8714 947.844 75.1082 958.545 65.5818 966.161H77.1309ZM8.22731 919.285C3.13784 924.405 0.593105 930.905 0.593105 938.783C0.593105 946.662 3.13784 953.161 8.22731 958.282C13.4473 963.535 20.1028 966.161 28.1937 966.161C36.2847 966.161 42.8749 963.535 47.9643 958.282C53.1843 953.161 55.7943 946.662 55.7943 938.783C55.7943 930.905 53.1843 924.405 47.9643 919.285C42.8749 914.164 36.2847 911.603 28.1937 911.603C20.1027 911.603 13.4473 914.164 8.22731 919.285Z" fill="#ECF6F8"/>
<path d="M77.1309 1093.59H-20.7435V1068.77H9.7933V1059.91L-20.7435 1037.26L-20.7435 1007.91L12.7295 1032.53C15.3395 1026.23 19.4503 1021.17 25.0617 1017.37C30.8037 1013.69 36.9372 1011.85 43.4621 1011.85C52.5971 1011.85 60.4923 1015.13 67.1478 1021.7C73.8032 1028.26 77.1309 1036.86 77.1309 1047.5V1093.59ZM54.6198 1049.47C54.6198 1045.79 53.5106 1042.71 51.2921 1040.21C49.2041 1037.85 46.3331 1036.67 42.6791 1036.67C39.1557 1036.67 36.3499 1037.85 34.2619 1040.21C32.1739 1042.71 31.1299 1045.79 31.1299 1049.47L31.13 1068.77H54.6198V1049.47Z" fill="#ECF6F8"/>
<path d="M77.131 1279.43V1306.61L-20.7435 1270.76C-48.2789 1260.78 -61.3288 1243.45 -59.8933 1218.77H-36.4034C-36.5339 1225.46 -35.2942 1230.72 -32.6842 1234.52C-30.0742 1238.46 -25.7025 1241.61 -19.569 1243.98L77.131 1204.19V1231.18L11.3593 1257.57L77.131 1279.43Z" fill="#ECF6F8"/>
<path d="M77.131 1397.04H-20.7435V1371.63H52.8581V1344.45H20.168C-10.1078 1344.45 -23.745 1330.6 -20.7435 1302.9H2.94211C1.63712 1308.15 2.48536 1312.15 5.48685 1314.91C8.61883 1317.67 13.9693 1319.05 21.5383 1319.05H77.131V1397.04Z" fill="#ECF6F8"/>
<path d="M45.8111 1464.58C45.8111 1475.74 42.7444 1484.73 36.6109 1491.56C30.608 1498.39 22.5823 1501.8 12.5338 1501.8C2.48537 1501.8 -5.60559 1498.39 -11.7391 1491.56C-17.742 1484.73 -20.7435 1475.74 -20.7435 1464.58L-20.7435 1420.07H77.131V1445.47H45.8111V1464.58ZM77.131 1512.64V1538.04H-20.7435V1512.64H77.131ZM1.57187 1464.78C1.57187 1468.32 2.55062 1471.21 4.50811 1473.44C6.5961 1475.81 9.27133 1476.99 12.5338 1476.99C15.7963 1476.99 18.4715 1475.81 20.5595 1473.44C22.6475 1471.21 23.6915 1468.32 23.6915 1464.78V1445.47H1.57187V1464.78Z" fill="#ECF6F8"/>
<path d="M-23.484 1607.93C-23.484 1592.43 -18.525 1579.89 -8.60707 1570.31C1.31087 1560.85 13.9041 1556.13 29.1725 1556.13C45.8764 1556.13 58.7306 1558.62 67.735 1563.61C76.87 1568.6 85.1567 1578.64 92.5951 1593.74C93.6391 1595.98 95.0746 1599.13 96.9016 1603.2C98.8591 1607.27 100.229 1610.03 101.012 1611.47C101.795 1613.05 102.97 1615.15 104.536 1617.77C106.102 1620.4 107.472 1622.24 108.647 1623.29C109.952 1624.47 111.583 1625.72 113.54 1627.03C115.498 1628.34 117.651 1629.39 120 1630.18L108.059 1651.06C100.099 1649.35 93.9001 1645.48 89.4632 1639.44C85.1567 1633.53 80.7197 1624.6 76.1522 1612.65C72.8898 1604.25 69.6273 1598.14 66.3648 1594.34C63.1023 1590.53 59.1873 1587.77 54.6198 1586.06C62.0583 1593.42 65.7775 1603.26 65.7775 1615.61C65.7775 1626.51 61.7973 1636.22 53.8368 1644.76C46.0069 1653.29 35.5669 1657.56 22.517 1657.56C9.07559 1657.56 -1.9516 1652.96 -10.5646 1643.77C-19.1775 1634.71 -23.484 1622.76 -23.484 1607.93ZM6.26985 1589.81C1.83287 1594.66 -0.385612 1600.64 -0.385612 1607.73C-0.385612 1614.82 1.76763 1620.66 6.0741 1625.26C10.3806 1629.85 15.8616 1632.15 22.517 1632.15C29.1725 1632.15 34.6535 1629.85 38.9599 1625.26C43.3969 1620.66 45.6154 1614.75 45.6154 1607.53C45.6154 1601.1 43.5927 1595.32 39.5472 1590.2C35.5017 1585.21 30.086 1582.71 23.3 1582.71C16.3836 1582.71 10.7068 1585.08 6.26985 1589.81Z" fill="#ECF6F8"/>
<path d="M-20.7435 1763.8L-20.7435 1734.25L23.6915 1698.4H-20.7435V1673H77.131V1698.4H34.0662L77.131 1732.28V1762.61L28.781 1723.02L-20.7435 1763.8Z" fill="#ECF6F8"/>
<path d="M77.131 1844.21V1869.61H-20.7435V1844.21H-9.19431C-18.7208 1836.59 -23.484 1825.89 -23.484 1812.1C-23.484 1798.97 -18.525 1787.68 -8.60706 1778.22C1.44139 1768.9 13.7083 1764.24 28.1937 1764.24C42.6792 1764.24 54.8808 1768.9 64.7988 1778.22C74.8472 1787.68 79.8715 1798.97 79.8715 1812.1C79.8715 1825.89 75.1082 1836.59 65.5818 1844.21H77.131ZM8.22735 1797.33C3.13788 1802.45 0.59314 1808.95 0.59314 1816.83C0.59314 1824.71 3.13788 1831.21 8.22735 1836.33C13.4473 1841.58 20.1028 1844.21 28.1937 1844.21C36.2847 1844.21 42.8749 1841.58 47.9644 1836.33C53.1844 1831.21 55.7943 1824.71 55.7943 1816.83C55.7943 1808.95 53.1844 1802.45 47.9644 1797.33C42.8749 1792.21 36.2847 1789.65 28.1937 1789.65C20.1028 1789.65 13.4473 1792.21 8.22735 1797.33Z" fill="#ECF6F8"/>
</svg>
