<svg width="58" height="83" viewBox="0 0 58 83" fill="none" xmlns="http://www.w3.org/2000/svg">
<path d="M29.0497 48.6915C36.3666 48.6915 43.2493 50.3414 48.4819 53.3589C54.0401 56.5717 57.1016 60.9569 57.1016 65.711C57.1016 70.4652 54.0401 74.8503 48.4819 78.0631C43.2493 81.0806 36.3666 82.7305 29.0497 82.7305C21.7328 82.7305 14.8284 81.0806 9.61757 78.0631C4.05932 74.8503 0.997948 70.4652 0.997948 65.711C0.997948 60.9569 4.05932 56.5717 9.61757 53.3589C14.8501 50.3414 21.7545 48.6915 29.0497 48.6915ZM29.0497 78.8229C35.6719 78.8229 41.8815 77.3468 46.5278 74.6766C50.8268 72.2019 53.1934 69.0107 53.1934 65.7327C53.1934 62.433 50.8268 59.2636 46.5278 56.7671C41.8815 54.097 35.6936 52.6208 29.0497 52.6208C22.4276 52.6208 16.218 54.097 11.5716 56.7671C7.27268 59.2419 4.90609 62.433 4.90609 65.711C4.90609 69.0107 7.27268 72.1801 11.5716 74.6549C16.218 77.3468 22.4276 78.8229 29.0497 78.8229Z" fill="#ECF6F8"/>
<path d="M29.0503 -0.000659943C29.8319 -0.000659943 30.5484 0.476929 30.8524 1.19331L56.1251 61.1739C56.5376 62.1725 56.0817 63.3013 55.1046 63.7355C54.1276 64.1697 52.9769 63.7138 52.5427 62.7369C51.5439 60.5227 49.4812 58.5038 46.5284 56.8105C41.9038 54.1404 35.6941 52.7076 29.0503 52.7076C22.4281 52.7076 16.2185 54.1404 11.5722 56.8105C8.64106 58.5038 6.55674 60.5444 5.5797 62.7586C5.14547 63.7355 3.99472 64.1697 3.01768 63.7355C2.04065 63.3013 1.58471 62.1508 1.99723 61.1739L27.2699 1.19331C27.5522 0.476929 28.2687 -0.000659943 29.0503 -0.000659943ZM48.6128 53.424L29.0503 7.0112L9.48785 53.424C9.53128 53.4023 9.57467 53.5325 9.6181 53.5108C14.8507 50.4933 21.7334 48.9954 29.0503 48.9954C36.3672 48.9954 43.2716 50.4933 48.4825 53.5108C48.5259 53.5542 48.5693 53.4023 48.6128 53.424Z" fill="#ECF6F8"/>
<path d="M44.5485 76.6978L45.1926 75.7183L13.153 54.6558L12.5089 55.6354L44.5485 76.6978Z" fill="#ECF6F8"/>
<path d="M13.1557 76.6906L45.1953 55.6282L44.5512 54.6486L12.5116 75.7111L13.1557 76.6906Z" fill="#ECF6F8"/>
</svg>
